<?xml version="1.0" encoding="UTF-8"?>
<svg width="132px" height="100px" viewBox="0 0 132 100" version="1.1" xmlns="http://www.w3.org/2000/svg" xmlns:xlink="http://www.w3.org/1999/xlink">
    <title>Icon</title>
    <g id="Symbols" stroke="none" stroke-width="1" fill="none" fill-rule="evenodd">
        <g id="icon_free_shipping" transform="translate(-208.000000, -22.000000)" fill="#D50032" fill-rule="nonzero">
            <g id="Icon" transform="translate(208.599662, 22.600000)">
                <path d="M64.2694185,0.190603748 L20.6354997,18.7019639 C18.7507051,19.5015738 18.6682608,22.1423626 20.4995065,23.0579856 L64.1334253,44.8749488 C64.8137275,45.2150999 65.6149974,45.2126421 66.2932,44.8683238 L109.266001,23.0513606 C111.079902,22.1304572 110.997346,19.51198 109.129037,18.7071699 L66.1562355,0.195809728 C65.5543835,-0.0634496217 64.872692,-0.0653304993 64.2694185,0.190603748 Z M65.1983379,5.0100001 L102.526338,21.0890001 L65.1983379,40.0400001 L27.2963379,21.0890001 L65.1983379,5.0100001 Z" id="Path"></path>
                <path d="M21.5728194,44.2950363 C22.8430743,44.2950363 23.8828407,45.2818754 23.9672826,46.5307177 L23.9728195,46.6950364 L23.9723379,72.3370001 L65.1983379,93.5750001 L105.779338,72.3470001 L105.779539,47.3561616 C105.779539,46.0859066 106.766378,45.0461403 108.015221,44.9616984 L108.179539,44.9561615 C109.449794,44.9561615 110.489561,45.9430006 110.574003,47.1918429 L110.579539,47.3561616 L110.579539,73.8009629 C110.579539,74.6346722 110.14739,75.4039995 109.446238,75.8394878 L109.291933,75.9275987 L66.3191323,98.4056795 C65.684689,98.7375422 64.9385866,98.7673613 64.283803,98.4945034 L64.1076422,98.4125827 L20.4737234,75.9345019 C19.7281083,75.5503971 19.241076,74.8075589 19.1794522,73.9795885 L19.1728193,73.8009629 L19.1728193,46.6950364 C19.1728193,45.3695529 20.2473359,44.2950363 21.5728194,44.2950363 Z" id="Path"></path>
                <path d="M20.0057643,19.0935763 L0.833282778,35.6215762 C-0.478672125,36.7525717 -0.197046361,38.8585051 1.3659886,39.6050292 L45.6610287,60.7608672 C46.5181579,61.1702423 47.5360797,61.0355833 48.257277,60.4174144 L66.7686372,44.5505397 C68.0718483,43.433502 67.8152727,41.3493092 66.280051,40.5816982 L22.6461322,18.764735 C21.7802395,18.3317886 20.739011,18.4614671 20.0057643,19.0935763 Z M21.9293379,23.7720001 L60.9003379,43.2580001 L46.3193379,55.7560001 L6.75133786,36.8570001 L21.9293379,23.7720001 Z" id="Path"></path>
                <path d="M107.093078,18.77136 L64.1202763,40.5883232 C62.5954233,41.3624795 62.3464225,43.4376116 63.6448391,44.5505397 L82.1561993,60.4174144 C82.8773967,61.0355834 83.8953185,61.1702423 84.7524477,60.7608671 L129.047484,39.6050291 C130.626162,38.8510339 130.893576,36.7156286 129.549577,35.5956292 L109.715982,19.0676293 C108.979365,18.4537813 107.948062,18.3372909 107.093078,18.77136 Z M107.856338,23.7660001 L123.600338,36.8860001 L84.0933379,55.7560001 L69.4943379,43.2420001 L107.856338,23.7660001 Z" id="Path"></path>
                <path d="M65.2067382,40.3283234 C66.4769931,40.3283234 67.5167595,41.3151625 67.6012014,42.5640048 L67.6067383,42.7283235 L67.6067383,96.2790437 C67.6067383,97.6045272 66.5322216,98.6790438 65.2067382,98.6790438 C63.9364832,98.6790438 62.8967168,97.6922047 62.8122749,96.4433624 L62.8067381,96.2790437 L62.8067381,42.7283235 C62.8067381,41.40284 63.8812547,40.3283234 65.2067382,40.3283234 Z" id="Path"></path>
            </g>
        </g>
    </g>
</svg>