<svg width="50" height="50" viewBox="0 0 50 50" fill="none" xmlns="http://www.w3.org/2000/svg">
<g clip-path="url(#clip0_11_371)">
<path d="M45.7742 26.0742L15.6022 40.8368C14.4893 41.3881 13.1909 40.898 12.6344 39.8567L3.17475 20.8674C2.61829 19.7648 3.05109 18.4784 4.16399 17.9271L34.3979 3.16451C35.5108 2.61321 36.8092 3.10325 37.3656 4.1446L46.8253 23.1339C47.3817 24.2365 46.8871 25.5229 45.7742 26.0742Z" stroke="#D51F35" stroke-width="2" stroke-miterlimit="10" stroke-linecap="round" stroke-linejoin="round"/>
<path d="M17.3955 33.6077C17.3955 33.6077 17.581 28.0947 21.538 25.1544C23.3928 23.8068 30.6885 17.865 25.7423 15.5985C21.7235 13.6996 20.796 21.234 21.538 25.1544" stroke="#D51F35" stroke-width="2" stroke-miterlimit="10" stroke-linecap="round" stroke-linejoin="round"/>
<path d="M30.5027 27.0529C30.5027 27.0529 25.9275 23.8676 21.2286 25.2765C19.0027 25.9503 9.91404 28.1555 10.9651 22.8875C11.8307 18.5384 18.8173 22.2137 21.5377 25.154" stroke="#D51F35" stroke-width="2" stroke-miterlimit="10" stroke-linecap="round" stroke-linejoin="round"/>
<path d="M8.49219 31.5861L42.683 14.8633" stroke="#D51F35" stroke-width="2" stroke-miterlimit="10" stroke-linecap="round" stroke-linejoin="round"/>
<path d="M15.417 13.0879L26.546 35.5075" stroke="#D51F35" stroke-width="2" stroke-miterlimit="10" stroke-linecap="round" stroke-linejoin="round"/>
<path d="M37.6133 25.6448L41.6939 23.6846" stroke="#D51F35" stroke-width="2" stroke-miterlimit="10" stroke-linecap="round" stroke-linejoin="round"/>
</g>
<defs>
<clipPath id="clip0_11_371">
<rect width="46" height="40" fill="white" transform="translate(2 2)"/>
</clipPath>
</defs>
</svg>
