<svg width="50" height="50" viewBox="0 0 50 50" fill="none" xmlns="http://www.w3.org/2000/svg">
<path d="M25 7.5342C32.573 7.5342 38.7224 13.8255 38.7224 21.573C38.7224 29.3206 32.573 35.6701 25 35.6701C17.427 35.6701 11.2776 29.3206 11.2776 21.573C11.2776 13.8255 17.427 7.5342 25 7.5342ZM25 5.2041C16.1744 5.2041 9 12.5439 9 21.573C9 30.6022 16.1744 37.942 25 37.942C33.8256 37.942 41 30.6022 41 21.573C41 12.5439 33.8256 5.2041 25 5.2041Z" fill="#D51F35"/>
<path d="M23.8042 22.4468L24.943 9.86426L26.0818 22.4468C26.1387 23.0876 25.6832 23.6701 25.0569 23.7283C24.4305 23.7866 23.8611 23.3206 23.8042 22.6798C23.8042 22.5633 23.8042 22.505 23.8042 22.4468Z" fill="#D51F35"/>
<path d="M28.0745 3.68918H21.9251C21.4696 3.68918 21.1279 3.33966 21.1279 2.87364C21.1279 2.40762 21.4696 2.05811 21.9251 2.05811H28.0745C28.5301 1.99986 28.9286 2.34937 28.9286 2.81539C28.9286 3.28141 28.5301 3.68918 28.0745 3.68918Z" fill="#D51F35"/>
<path d="M24.8292 2.81543C25.6264 2.81543 26.2527 3.45621 26.2527 4.27174V4.67951C26.2527 5.49504 25.6264 6.13582 24.8292 6.13582C24.0321 6.13582 23.4058 5.49504 23.4058 4.67951V4.32999C23.4058 3.51446 24.089 2.81543 24.8292 2.81543Z" fill="#D51F35"/>
</svg>
