<svg width="50" height="50" viewBox="0 0 50 50" fill="none" xmlns="http://www.w3.org/2000/svg">
<g clip-path="url(#clip0_11_373)">
<path d="M23.5039 34.1328H26.4959" stroke="#D51F36" stroke-width="2" stroke-linecap="round" stroke-linejoin="round"/>
<path d="M37.9202 34.8954C36.9002 35.9365 35.2002 35.9365 34.1122 34.8954C33.0922 33.8544 33.0922 32.1194 34.1122 31.009L34.8602 30.2456C35.8802 29.2046 37.5802 29.2046 38.6682 30.2456C39.6882 31.2866 39.6882 33.0216 38.6682 34.132L37.9202 34.8954Z" stroke="#D51F36" stroke-width="2" stroke-linecap="round" stroke-linejoin="round"/>
<path d="M37.9202 28.6494C36.9002 29.6904 35.2002 29.6904 34.1122 28.6494C33.0922 27.6083 33.0922 25.8733 34.1122 24.7629L34.8602 23.9995C35.8802 22.9585 37.5802 22.9585 38.6682 23.9995C39.6882 25.0405 39.6882 26.7755 38.6682 27.8859L37.9202 28.6494Z" stroke="#D51F36" stroke-width="2" stroke-linecap="round" stroke-linejoin="round"/>
<path d="M37.9197 22.4736C36.8997 23.5146 35.1997 23.5146 34.1117 22.4736C33.0917 21.4326 33.0917 19.6975 34.1117 18.5871L34.8597 17.8237C35.8797 16.7827 37.5797 16.7827 38.6677 17.8237C39.6877 18.8647 39.6877 20.5998 38.6677 21.7102L37.9197 22.4736Z" stroke="#D51F36" stroke-width="2" stroke-linecap="round" stroke-linejoin="round"/>
<path d="M34.9282 10.0498L36.4242 8.52294C37.4442 7.48194 39.1442 7.48194 40.2322 8.52294C41.2522 9.56395 41.2522 11.299 40.2322 12.4094L34.9282 17.8226" stroke="#D51F36" stroke-width="2" stroke-linecap="round" stroke-linejoin="round"/>
<path d="M34.9278 17.8234V6.16404C34.9278 4.42903 33.5678 3.04102 31.8678 3.04102H18.1318C16.4318 3.04102 15.0718 4.42903 15.0718 6.16404V35.6593C15.0718 37.3943 16.4318 38.7823 18.1318 38.7823H31.7998C33.4998 38.7823 34.8598 37.3943 34.8598 35.6593V35.3817" stroke="#D51F36" stroke-width="2" stroke-linecap="round" stroke-linejoin="round"/>
<path d="M37.9202 34.8954C36.9002 35.9365 35.2002 35.9365 34.1122 34.8954C33.0922 33.8544 33.0922 32.1194 34.1122 31.009L34.8602 30.2456C35.8802 29.2046 37.5802 29.2046 38.6682 30.2456C39.6882 31.2866 39.6882 33.0216 38.6682 34.132L37.9202 34.8954Z" stroke="#D51F36" stroke-width="2" stroke-linecap="round" stroke-linejoin="round"/>
<path d="M31.868 38.7829H18.132C16.432 38.7829 15.072 37.3949 15.072 35.6599V18.5873C15.072 16.0195 13.032 13.9375 10.516 13.9375C9.70002 13.9375 9.02002 14.6315 9.02002 15.4643V34.8965C9.02002 40.4485 14.46 45.029 21.192 45.029C26.292 45.029 30.644 42.4612 32.48 38.7829C32.276 38.7829 32.072 38.7829 31.868 38.7829Z" stroke="#D51F36" stroke-width="2" stroke-linecap="round" stroke-linejoin="round"/>
<path d="M27.312 16.9902H24.252C23.436 16.9902 22.756 17.6842 22.756 18.517C22.756 19.3499 23.436 20.0439 24.252 20.0439H25.748C26.564 20.0439 27.244 20.7379 27.244 21.5707C27.244 22.4035 26.564 23.0975 25.748 23.0975H22.688" stroke="#D51F36" stroke-width="2" stroke-linecap="round" stroke-linejoin="round"/>
<path d="M25 15.4639V16.9907" stroke="#D51F36" stroke-width="2" stroke-linecap="round" stroke-linejoin="round"/>
<path d="M25 23.2363V24.7631" stroke="#D51F36" stroke-width="2" stroke-linecap="round" stroke-linejoin="round"/>
<path d="M24.9998 27.1224C28.7929 27.1224 31.8678 23.9842 31.8678 20.113C31.8678 16.2418 28.7929 13.1035 24.9998 13.1035C21.2067 13.1035 18.1318 16.2418 18.1318 20.113C18.1318 23.9842 21.2067 27.1224 24.9998 27.1224Z" stroke="#D51F36" stroke-width="2" stroke-linecap="round" stroke-linejoin="round"/>
</g>
<defs>
<clipPath id="clip0_11_373">
<rect width="34" height="44" fill="white" transform="translate(8 2)"/>
</clipPath>
</defs>
</svg>
