<svg width="52" height="60" viewBox="0 0 52 60" fill="none" xmlns="http://www.w3.org/2000/svg">
<rect width="52" height="60" fill="white"/>
<g clip-path="url(#clip0_1963_37035)">
<path d="M11.1567 29.4935L16.3341 27.8532L19.534 32.1467V26.8403L24.7348 25.2001L19.534 23.5598V18.2534L16.3341 22.5469L11.1489 20.9066L14.3644 25.2001L11.1567 29.4935Z" fill="#333F48"/>
<path d="M19.6274 13L31.0411 25.2076L19.6274 37.4153H29.4295L40.8511 25.2076L29.4295 13H19.6274Z" fill="#333F48"/>
<path d="M3.23881 42.5176C3.69037 42.5176 4.13415 42.7292 4.43001 43.0845L4.53898 43.213L5.93262 42.2833L5.80805 42.132C5.19299 41.3837 4.25094 40.9529 3.23881 40.9529C1.45591 40.9529 0 42.3059 0 43.9689C0 45.6318 1.45591 46.9773 3.23881 46.9773C4.24316 46.9773 5.17743 46.554 5.79249 45.8208L5.91706 45.6696L4.52342 44.7399L4.41441 44.8684C4.11081 45.2237 3.68259 45.4277 3.23102 45.4277C2.40575 45.4277 1.70505 44.7626 1.70505 43.9764C1.71283 43.1828 2.41354 42.5176 3.23881 42.5176Z" fill="#333F48"/>
<path d="M18.2104 44.3241L15.6878 41.1191H14.084V46.7883H15.6411V43.6136L17.9923 46.7883H19.7675V41.1191H18.2104V44.3241Z" fill="#333F48"/>
<path d="M24.2055 45.1556V45.1481C24.2055 45.201 24.1432 45.2085 24.1121 45.2085C24.0887 45.2085 24.042 45.201 24.0186 45.1481L22.7262 41.1191H20.9355L22.843 46.7883H25.3889L27.2964 41.1191H25.5057L24.2055 45.1556Z" fill="#333F48"/>
<path d="M39.6285 42.7897C39.5584 41.8448 38.7098 41.1191 37.6977 41.1191H34.7158V46.7883H36.2729V44.7474H36.9736C37.0437 44.7474 37.106 44.755 37.1527 44.8155L38.1571 46.7883H39.9089L38.7021 44.4753C39.3249 44.1276 39.6832 43.4926 39.6285 42.7897ZM37.651 43.2357H36.2807V42.6309H37.651C37.8378 42.6309 37.9936 42.7519 37.9936 42.9333C37.9936 43.1147 37.8378 43.2357 37.651 43.2357Z" fill="#333F48"/>
<path d="M52.0001 42.6309V41.1191H47.3286V46.7883H52.0001V45.2766H48.8859V44.5963H51.6885V43.2357H48.8859V42.6309H52.0001Z" fill="#333F48"/>
<path d="M43.8094 43.2583C42.9766 43.0769 42.7351 42.956 42.7351 42.6914V42.6763C42.7351 42.4646 42.8984 42.2983 43.3036 42.2983C43.8406 42.2983 44.2766 42.4646 44.8605 42.8048L45.795 41.7314C45.141 41.225 44.3544 40.9529 43.3344 40.9529C41.8865 40.9529 41.0222 41.739 41.0222 42.8275V42.8426C41.0222 44.0445 42.0421 44.3997 43.3267 44.6794C44.1441 44.8608 44.3702 44.9969 44.3702 45.2388V45.2539C44.3702 45.5034 44.0821 45.6545 43.6303 45.6545C42.9296 45.6545 42.2447 45.4126 41.6527 44.9515L40.7109 46.0324C41.4505 46.675 42.5248 47 43.5914 47C45.0551 47 46.0827 46.2895 46.0827 45.0952V45.08C46.0827 43.984 45.1953 43.5531 43.8094 43.2583Z" fill="#333F48"/>
<path d="M9.71661 40.9604C7.97265 40.9604 6.55566 42.3135 6.55566 43.9689C6.55566 45.6319 7.97265 46.9773 9.71661 46.9773C11.4606 46.9773 12.8776 45.6243 12.8776 43.9689C12.8776 42.306 11.4606 40.9604 9.71661 40.9604ZM9.71661 45.4051C8.89913 45.4051 8.23734 44.7626 8.23734 43.9689C8.23734 43.1752 8.89913 42.5327 9.71661 42.5327C10.5341 42.5327 11.1959 43.1752 11.1959 43.9689C11.1959 44.7626 10.5341 45.4051 9.71661 45.4051Z" fill="#333F48"/>
<path d="M28.4097 46.7883H33.081V45.2766H29.9668V44.5963H32.7696V43.2357H29.9668V42.6309H33.081V41.1191H28.4097V46.7883Z" fill="#333F48"/>
</g>
<defs>
<clipPath id="clip0_1963_37035">
<rect width="52" height="34" fill="white" transform="translate(0 13)"/>
</clipPath>
</defs>
</svg>
