<svg width="61" height="60" viewBox="0 0 61 60" fill="none" xmlns="http://www.w3.org/2000/svg">
<rect width="61" height="60" fill="white"/>
<path d="M44.451 27.2081C44.8644 27.2132 45.2712 27.3126 45.6405 27.4987C46.0097 27.6847 46.3316 27.9526 46.5816 28.2818C46.5917 28.2987 46.6034 28.3147 46.6164 28.3296C46.6353 28.3547 46.6527 28.3808 46.6685 28.4078C46.8113 28.5737 46.9853 28.7098 47.1807 28.8084C47.3761 28.907 47.5889 28.9661 47.8072 28.9825C48.0254 28.9988 48.2447 28.972 48.4526 28.9037C48.6605 28.8353 48.8528 28.7266 49.0187 28.5839C49.1846 28.4412 49.3207 28.2672 49.4193 28.0719C49.518 27.8766 49.5771 27.6638 49.5935 27.4456C49.6099 27.2274 49.5831 27.0081 49.5147 26.8003C49.4462 26.5925 49.3376 26.4002 49.1948 26.2343C48.0513 24.8215 46.6859 24.013 44.4119 24.013C40.829 24.013 38.1332 26.4908 38.1332 29.9641C38.1332 33.4374 40.8507 35.9891 44.451 35.9891C46.7425 35.9891 48.0904 35.1805 49.2339 33.9155C49.4988 33.619 49.6444 33.235 49.6427 32.8375C49.6545 32.4954 49.5584 32.1583 49.3679 31.8739C49.1774 31.5896 48.9022 31.3723 48.5814 31.2531C48.2605 31.1338 47.9102 31.1185 47.5801 31.2094C47.2501 31.3003 46.957 31.4927 46.7425 31.7594C46.4616 32.0946 46.1112 32.3646 45.7155 32.5508C45.3198 32.737 44.8883 32.8348 44.451 32.8375C42.8074 32.8375 41.8899 31.6507 41.8899 29.9815C41.8899 28.3122 42.79 27.2081 44.451 27.2081ZM57.1997 28.5817C55.6388 28.2296 54.9126 28.147 54.9126 27.5037C54.9126 27.0472 55.317 26.8299 56.1475 26.8299C56.9632 26.8569 57.7448 27.1639 58.3607 27.6993C58.6212 27.95 58.9687 28.0902 59.3303 28.0905C59.6186 28.0921 59.9006 28.0058 60.1385 27.843C60.3765 27.6803 60.5592 27.4489 60.6622 27.1796C60.7652 26.9104 60.7836 26.6162 60.715 26.3362C60.6464 26.0563 60.494 25.8039 60.2782 25.6127C59.3347 24.6564 57.9954 24.0434 56.1214 24.0434C53.6734 24.0434 51.6776 25.0954 51.6776 27.6775C51.6776 30.0771 53.4169 30.9378 54.9909 31.3421C56.8519 31.8246 57.5998 31.8246 57.5998 32.4462C57.5998 32.9288 57.2215 33.1461 56.0388 33.1461C55.1192 33.1381 54.2303 32.8143 53.5212 32.2289L53.556 32.2637C53.3048 32.0363 52.9815 31.9045 52.6429 31.8915C52.3043 31.8784 51.9718 31.9848 51.7038 32.1921C51.4358 32.3995 51.2493 32.6944 51.1769 33.0254C51.1045 33.3564 51.1509 33.7023 51.308 34.0025C51.308 34.0025 51.308 34.0373 51.3384 34.059C51.3634 34.1037 51.3925 34.1459 51.4254 34.1851L51.495 34.272C51.5254 34.3024 51.5472 34.3372 51.5776 34.3676L51.6515 34.4285C52.6516 35.324 54.0952 35.9978 56.2866 35.9978C59.8956 35.9978 61 34.259 61 32.1724C61 29.7467 58.8955 28.9686 57.2258 28.5904L57.1997 28.5817ZM6.27871 27.2081C6.69509 27.2106 7.10534 27.3087 7.47777 27.4948C7.8502 27.681 8.17486 27.9503 8.42669 28.2818L8.45712 28.3296C8.4774 28.3546 8.49627 28.3807 8.51365 28.4078C8.6564 28.5743 8.83054 28.7109 9.02612 28.81C9.2217 28.9092 9.4349 28.9688 9.65354 28.9856C9.87217 29.0023 10.092 28.9758 10.3004 28.9077C10.5088 28.8395 10.7017 28.731 10.8682 28.5882C11.0346 28.4455 11.1713 28.2714 11.2705 28.0759C11.3696 27.8804 11.4293 27.6672 11.446 27.4487C11.4628 27.2301 11.4363 27.0103 11.3681 26.802C11.2999 26.5936 11.1914 26.4007 11.0486 26.2343C10.4961 25.4985 9.77054 24.9104 8.93619 24.5221C8.10184 24.1339 7.18454 23.9575 6.26566 24.0086C2.70889 24.0304 0 26.5082 0 29.9815C0 33.4548 2.70889 35.9891 6.27871 35.9891C7.18217 36.0378 8.08459 35.8759 8.91469 35.516C9.74478 35.1561 10.4798 34.6082 11.0617 33.9155C11.3265 33.619 11.4721 33.235 11.4704 32.8375C11.4775 32.4996 11.3795 32.1679 11.1898 31.8881C11 31.6084 10.7281 31.3946 10.4115 31.2762C10.0948 31.1578 9.74925 31.1407 9.4225 31.2273C9.09574 31.3138 8.80397 31.4998 8.58757 31.7594C8.30403 32.0952 7.95044 32.365 7.55159 32.5497C7.15273 32.7344 6.71828 32.8297 6.27871 32.8288C4.63511 32.8288 3.71766 31.642 3.71766 29.9728C3.71766 28.3035 4.63511 27.1994 6.27871 27.1994V27.2081ZM29.9195 32.9157C28.3064 32.9157 27.3106 31.7333 27.3106 30.0336C27.3106 28.3339 28.3107 27.1559 29.9195 27.1559C31.5283 27.1559 32.5284 28.3122 32.5284 30.0336C32.5284 31.7551 31.5588 32.9157 29.9195 32.9157ZM29.9195 24.0304C26.3628 24.0304 23.5799 26.543 23.5799 30.0206C23.5799 33.4982 26.3541 35.976 29.9108 35.976C33.4676 35.976 36.2243 33.4982 36.2243 30.0206C36.2243 26.543 33.4763 24.0304 29.9195 24.0304ZM21.7885 24.7694C21.2403 24.476 20.6095 24.375 19.9971 24.4825C18.8996 24.6165 17.8824 25.1265 17.1186 25.9257V26.0039C17.1207 25.9793 17.1207 25.9546 17.1186 25.93C17.0866 25.4508 16.8705 25.0026 16.5155 24.679C16.1605 24.3555 15.6941 24.1817 15.2139 24.1941C14.7336 24.2064 14.2768 24.4039 13.9389 24.7453C13.601 25.0867 13.4083 25.5455 13.401 26.0257V34.1546C13.405 34.6481 13.6049 35.1197 13.9568 35.4658C14.3087 35.8118 14.7836 36.004 15.2772 35.9999C15.7707 35.9959 16.2425 35.796 16.5886 35.4442C16.9348 35.0925 17.127 34.6176 17.123 34.1242V31.9029C17.123 28.8904 18.8622 28.1296 19.8449 28.1079C20.1014 28.1079 20.7667 28.3557 21.2841 28.26C21.6637 28.1873 22.0112 27.9982 22.2784 27.719C22.5456 27.4398 22.7192 27.0844 22.7751 26.702C22.831 26.3197 22.7665 25.9295 22.5905 25.5855C22.4145 25.2415 22.1357 24.9608 21.7929 24.7824" fill="#344049"/>
</svg>
