<svg width="106" height="60" viewBox="0 0 106 60" fill="none" xmlns="http://www.w3.org/2000/svg">
<rect width="106" height="60" fill="white"/>
<g clip-path="url(#clip0_2060_19937)">
<path d="M55.5118 22.2754V37.3253C55.3606 38.0742 56.7214 37.9744 56.3038 38.7518C55.7566 39.4651 54.619 39.1085 53.7478 39.2012C52.9486 39.1085 51.775 39.4865 51.5302 38.5664C51.4726 37.903 52.3006 37.953 52.2502 37.2968V29.8717C52.1134 30.3781 52.1566 31.127 51.5878 31.3553C51.4259 31.373 51.2619 31.354 51.1085 31.2996C50.955 31.2452 50.8161 31.1569 50.7022 31.0414C50.4718 30.7775 50.5654 30.1427 50.2702 30.1427C49.2262 30.3139 48.6934 31.3909 48.4414 32.2183C48.2355 34.025 48.1921 35.8462 48.3118 37.6605C48.4198 38.1313 49.3198 38.06 48.895 38.7304C48.745 38.912 48.5521 39.0541 48.3334 39.1441C48.3334 39.1441 47.6134 39.1941 46.4398 39.1941C45.2662 39.1941 44.6326 39.1441 44.6326 39.1441C44.5162 39.1004 44.4131 39.0274 44.3336 38.9324C44.2541 38.8374 44.2008 38.7236 44.179 38.602C44.0278 38.3738 44.2726 38.0956 44.4454 38.0172C44.6182 37.9387 44.863 37.7105 44.899 37.5321V30.1498C44.8414 29.5008 43.8118 29.6506 44.035 28.9943C44.9638 28.1884 46.2526 28.1884 47.2606 27.5678C47.527 27.6035 47.8294 27.4894 48.0382 27.6605C48.3982 28.1313 48.0382 28.9373 48.3046 29.5008H48.4342C49.0246 28.709 49.7806 27.5535 50.9542 27.6106C51.271 27.6106 52.0126 27.6106 52.243 28.1028C52.243 26.5764 52.4302 24.4865 51.451 23.6948C51.451 22.632 53.8054 22.7461 54.5398 21.8902C54.8206 21.7262 55.4398 21.7476 55.5118 22.2754Z" fill="#344049"/>
<path d="M82.08 21.8402L82.152 23.98L82.2312 36.9186C82.3824 37.2039 82.764 37.0114 82.8792 37.3109C83.0088 37.96 82.512 38.1669 82.044 38.3666C81.0973 38.8089 80.0868 39.1025 79.0488 39.2368C78.5952 39.1012 79.1784 38.6305 78.7248 38.4379C78.2136 38.9871 77.5152 39.5649 76.7376 39.3009C75.2976 39.1726 74.4624 37.9315 74.0808 36.6904C73.512 33.8017 73.7784 30.5349 75.4488 28.2596C75.9236 27.7535 76.5747 27.445 77.2704 27.3965C77.7435 27.5193 78.1917 27.722 78.5952 27.9957L78.7248 27.7746V24.3509C78.4224 23.9372 77.4936 23.7303 77.9112 23.0385C78.192 22.8316 78.48 22.9814 78.912 22.8102C79.7904 22.3965 80.6976 22.0256 81.5472 21.5905C81.6515 21.5593 81.7637 21.5675 81.8622 21.6137C81.9606 21.6598 82.0383 21.7405 82.08 21.8402V21.8402ZM77.8176 29.3152C77.6664 29.1084 77.436 29.3152 77.3208 29.4436C76.5288 31.5335 76.2048 34.5577 77.5872 36.4693C77.643 36.5136 77.7082 36.5448 77.7779 36.5603C77.8477 36.5758 77.9201 36.5753 77.9896 36.5587C78.0592 36.5422 78.1239 36.5101 78.179 36.4649C78.234 36.4198 78.2779 36.3627 78.3072 36.2981C78.9112 34.6388 79.0359 32.8454 78.6672 31.1198C78.5794 30.4512 78.2938 29.8233 77.8464 29.3152H77.8176Z" fill="#344049"/>
<path d="M11.6495 21.9187L12.6143 26.1983C12.6401 26.392 12.6004 26.5888 12.5014 26.7578C12.4024 26.9269 12.2497 27.0587 12.0671 27.1327C11.8729 27.188 11.6669 27.1887 11.4723 27.1345C11.2777 27.0803 11.1022 26.9735 10.9655 26.826C10.3031 25.8559 10.1735 24.5578 9.14391 23.8088C8.86311 23.766 8.58951 23.8088 8.53911 24.1013L8.58231 37.5321C8.65178 37.7365 8.77297 37.9199 8.9343 38.0647C9.09563 38.2096 9.29174 38.311 9.50391 38.3595C9.67387 38.3084 9.82849 38.2166 9.95408 38.0922C10.0797 37.9678 10.1723 37.8146 10.2239 37.6462V30.2568C10.1663 29.8217 8.95671 29.6576 9.31671 29.2225C10.4255 28.6947 11.5919 28.3024 12.6935 27.7389C13.0103 27.7389 13.4783 27.7389 13.5791 28.0884V37.6534C13.5359 38.1812 14.2487 38.1027 14.3639 38.5521C14.5367 38.1812 15.0263 38.1027 15.0839 37.6534V30.3852C15.0479 29.786 13.8959 29.6719 14.2271 29.2225C15.2927 28.7446 16.3367 28.281 17.3591 27.796C17.7119 27.6605 18.2879 27.6462 18.4031 28.0599C18.5183 28.4736 18.3455 28.5877 18.4967 28.8302C18.9503 29.0585 18.9719 28.4165 19.2743 28.2454C19.6246 27.9616 20.0468 27.7783 20.4948 27.7154C20.9429 27.6525 21.3998 27.7125 21.8159 27.8887C22.4567 28.0029 22.5359 28.8873 23.1407 28.8302C23.4431 28.4522 23.6159 28.0242 24.0911 27.8317C24.8335 27.6854 25.6042 27.8203 26.2511 28.2097C27.6119 29.5792 27.6263 31.5621 27.8423 33.3951C28.0295 34.9643 28.1447 36.4622 28.3391 38.1241C28.4327 38.3666 28.5623 38.2596 28.7495 38.388V38.01V24.8645C28.7495 23.9515 27.8855 23.9444 28.0295 23.331C28.8647 22.368 30.3191 22.5036 31.3055 21.7118C31.4681 21.6918 31.633 21.7222 31.7774 21.7988C31.9218 21.8755 32.0387 21.9946 32.1119 22.1398V28.0029C32.4359 28.3381 32.6303 27.7817 33.0263 27.6462C33.4632 27.5458 33.9196 27.5681 34.3444 27.7104C34.7692 27.8528 35.1455 28.1097 35.4311 28.4522C36.5543 29.6362 36.7991 31.1912 37.0223 32.7318H37.0799C37.3319 30.8203 37.7279 28.5235 39.7583 27.7389C40.2249 27.5527 40.7297 27.4795 41.2306 27.5254C41.7315 27.5713 42.2141 27.735 42.6383 28.0029C43.2845 28.5391 43.7756 29.2356 44.0615 30.0213C44.3473 30.8069 44.4177 31.6536 44.2655 32.475C42.8255 33.1455 41.3855 33.7304 40.1687 34.2725C40.1907 34.6585 40.2951 35.0355 40.4751 35.3785C40.655 35.7215 40.9065 36.0228 41.2127 36.2625C41.6807 36.4765 42.3719 36.7546 42.8039 36.3053C43.0127 35.9272 42.9191 35.2068 43.3943 35.1783C43.8695 35.1498 44.2223 35.1783 44.4023 35.592C44.6022 36.0338 44.6705 36.523 44.5991 37.002C44.5276 37.4809 44.3195 37.9297 43.9991 38.2953C43.0559 39.3652 41.3855 39.4365 40.0391 39.1013C37.9943 38.4593 37.4975 36.2482 37.1591 34.465C37.0295 36.3552 36.7199 38.5449 34.7543 39.2582C33.6023 39.6006 32.0471 39.3367 31.4999 38.5806C31.3127 38.3737 31.3631 37.9743 30.9887 37.9815C30.3407 37.9815 30.4343 39.1869 29.5847 39.2582C29.2031 39.3937 28.9583 39.0514 28.8071 38.8445C28.7279 39.0728 28.6487 39.1155 28.3031 39.1797C28.3031 39.1797 25.0055 39.2225 24.7031 39.1797C24.4007 39.1369 24.3791 38.9515 24.2855 38.8231C24.0767 38.224 24.8543 38.5021 24.8903 37.9957C25.0045 35.7045 24.8814 33.4076 24.5231 31.1412C24.5127 30.9103 24.4405 30.6862 24.314 30.492C24.1875 30.2978 24.0112 30.1403 23.8031 30.0357C23.4359 29.8645 23.0831 30.3067 23.0831 30.5207V37.7247C23.0255 38.3809 24.1775 38.2382 23.6807 38.9515C22.7159 39.4223 21.1031 39.1583 19.9511 39.1797C19.7999 39.1013 19.6703 39.1369 19.5191 39.0656C19.3679 38.9943 19.2167 38.5021 19.3967 38.4451C19.8503 38.388 20.0231 37.903 20.1167 37.5464C20.1167 35.3424 20.1167 30.5563 20.0375 30.1997C19.9764 30.0514 19.8603 29.9318 19.7131 29.8655C19.5658 29.7991 19.3985 29.7911 19.2455 29.8431C19.0557 29.8889 18.8847 29.9915 18.7559 30.137C18.627 30.2825 18.5466 30.4638 18.5255 30.6562V37.7318C18.4319 38.3167 19.4903 38.2026 19.1087 38.8588L18.7487 39.1227C17.4443 39.2454 16.1321 39.2645 14.8247 39.1797C14.5799 39.03 14.2991 38.8588 14.2775 38.5378C14.1983 38.7874 14.1623 38.9515 13.9175 39.087C12.5561 39.2275 11.1844 39.2394 9.82071 39.1227C9.76311 39.03 9.59751 38.9943 9.49671 38.8588C8.83431 39.3866 7.83351 39.1583 6.96231 39.2154C5.82471 39.2154 4.93191 39.3866 3.96711 38.9943C3.88177 38.9341 3.82008 38.8465 3.79252 38.7464C3.76496 38.6463 3.77322 38.5398 3.81591 38.4451C4.00888 38.3854 4.18342 38.2782 4.32319 38.1335C4.46297 37.9888 4.5634 37.8113 4.61511 37.6177V24.2796C4.61511 23.8659 4.33431 23.9158 4.22631 23.8088C3.80871 23.766 3.46311 24.1441 3.27591 24.4793C2.51991 25.3852 2.70711 27.4893 1.00071 27.1897C0.784706 27.0043 0.561506 26.8902 0.503906 26.612C0.71657 25.0156 1.02917 23.4339 1.43991 21.8759C1.55511 21.7261 1.67031 21.4622 1.95111 21.505C2.08138 21.4953 2.21149 21.5257 2.32362 21.5921C2.43575 21.6585 2.52443 21.7576 2.57751 21.8759C4.93191 21.933 7.83351 21.933 10.4111 21.8759C10.6271 21.4265 11.5559 21.1626 11.6495 21.9187ZM40.5359 29.087C40.1471 28.8588 39.6791 29.3081 39.6287 29.5435C39.3506 30.6789 39.4311 31.8714 39.8591 32.9601C40.3046 32.8186 40.7304 32.6221 41.1263 32.3752C41.3828 32.081 41.5316 31.7097 41.5486 31.3214C41.5656 30.933 41.4498 30.5504 41.2199 30.2354L40.5359 29.087ZM33.1631 29.2725C32.8319 29.2725 32.3711 30.6633 32.1767 31.4123C32.0255 33.1954 31.9319 35.1854 32.9399 36.5977C33.1847 36.8545 33.3935 36.4051 33.5447 36.291C34.5311 34.5506 34.3583 32.2397 33.8471 30.3424C33.6959 29.9857 33.6599 29.2725 33.1631 29.2725Z" fill="#344049"/>
<path d="M72.4464 29.1299C73.3032 30.9701 73.4256 33.1741 73.62 35.2497C73.7064 36.1841 73.3896 37.7818 74.34 38.331C74.4131 38.421 74.4529 38.533 74.4529 38.6484C74.4529 38.7639 74.4131 38.8758 74.34 38.9658L74.016 39.137C72.7281 39.2886 71.4244 39.2453 70.1496 39.0086C70.0704 38.9359 70.015 38.8412 69.9906 38.737C69.9662 38.6327 69.9739 38.5236 70.0128 38.4237C71.1144 37.9173 70.5816 36.1912 70.6608 35.2497C70.4938 33.4811 70.0442 31.7501 69.3288 30.1213C69.2799 30.0406 69.2051 29.9785 69.1163 29.9449C69.0276 29.9112 68.93 29.9081 68.8392 29.9359L68.5584 30.2568L68.6088 37.525C68.6664 37.8602 68.7816 38.2953 69.1992 38.3667C69.3864 38.5521 69.1992 38.816 69.1416 39.0086C67.8739 39.2951 66.565 39.3579 65.2752 39.1941C65.1585 39.1627 65.0502 39.1061 64.9581 39.0284C64.866 38.9508 64.7923 38.8539 64.7424 38.7447C64.5735 38.9122 64.3724 39.0446 64.1511 39.134C63.9298 39.2234 63.6926 39.2681 63.4536 39.2654C63.0669 39.2537 62.6865 39.1649 62.3352 39.0044C61.9839 38.8438 61.6688 38.6148 61.4088 38.331C61.0103 38.6349 60.5864 38.9045 60.1416 39.137C59.6721 39.3122 59.1683 39.3782 58.6689 39.33C58.1696 39.2818 57.6881 39.1206 57.2616 38.8588C56.088 38.2169 55.9152 36.9972 55.8936 35.7918C55.8 34.0086 57.3768 32.7889 58.8168 32.0971C59.2704 31.9116 60.1128 31.8759 60.3144 31.341C60.3504 30.6705 60.3144 29.6933 59.6304 29.1655C59.1984 29.1655 58.7232 28.9801 58.3056 29.1655C57.9672 29.6363 58.7232 29.565 58.8528 29.9929C58.8998 30.1972 58.9043 30.4088 58.8659 30.6148C58.8275 30.8209 58.7471 31.017 58.6296 31.1912C58.1904 31.6976 57.3912 31.5906 56.808 31.4765C56.4712 31.2838 56.2157 30.9774 56.088 30.6135C56.0159 30.3078 56.0055 29.991 56.0574 29.6813C56.1093 29.3716 56.2225 29.0751 56.3904 28.8089C57.5064 27.5321 59.4576 27.6819 61.0344 27.8103C61.4555 27.8497 61.8574 28.0038 62.1954 28.2556C62.5335 28.5074 62.7945 28.847 62.9496 29.2369C63.6696 31.662 63.6696 34.2725 63.8208 36.8617C64.008 37.7604 64.5408 36.6762 64.728 37.5393L64.8648 38.3453C65.2608 38.3453 65.3544 37.8959 65.4912 37.632V30.214C65.3904 29.6077 64.3248 29.6149 64.6848 28.9729C65.5632 28.3381 66.6792 28.0956 67.644 27.5464C68.0256 27.4323 68.4072 27.5464 68.5152 27.8674C68.652 28.0172 68.4216 28.3167 68.688 28.4095C68.8265 28.1608 69.0159 27.9436 69.244 27.7716C69.4722 27.5997 69.734 27.4768 70.0128 27.4109C70.5462 27.4206 71.0642 27.5899 71.4985 27.8968C71.9329 28.2036 72.2634 28.6335 72.4464 29.1299V29.1299ZM60.2928 32.9958C60.0371 33.0631 59.7985 33.183 59.5926 33.3477C59.3867 33.5124 59.218 33.7181 59.0976 33.9515C58.8456 34.9644 58.7016 37.0757 59.6088 37.3324C59.7719 37.3859 59.9466 37.3942 60.1141 37.3565C60.2816 37.3188 60.4355 37.2365 60.5592 37.1184C60.6588 35.7955 60.613 34.4658 60.4224 33.1527L60.2928 32.9958Z" fill="#344049"/>
<path d="M103.514 35.5706C102.934 36.4195 102.202 37.1567 101.354 37.746C97.2 37.6319 93.1824 36.562 88.992 36.4051L88.668 35.9914C93.6 34.893 98.64 36.5834 103.514 35.5706Z" fill="#344049"/>
<path d="M98.5466 37.9744L100.822 38.1384C98.3594 39.943 94.1474 39.9787 91.4618 38.4594C90.6764 38.0138 89.9507 37.4723 89.3018 36.8474C92.5346 36.9401 95.4578 37.6534 98.5466 37.9744Z" fill="#344049"/>
<path d="M95.6449 20.9772C96.1561 21.8402 96.5377 22.7603 97.0489 23.6234H97.4665C97.1885 22.7357 96.8319 21.874 96.4009 21.0485C97.6969 20.6205 97.6177 22.2896 98.2225 22.8887C98.8849 22.7817 99.4753 22.2325 100.138 21.99C100.346 21.99 100.426 22.2182 100.591 22.2682L98.8345 23.7518C98.91 24.2644 99.0887 24.7568 99.3601 25.1997L101.311 22.6319C101.52 22.6676 101.635 22.9315 101.822 23.0028C101.542 23.495 101.218 23.8516 100.951 24.358L101.088 24.4294C101.938 24.7147 103.529 23.8873 103.774 25.1997L101.822 25.3923L100.951 26.8188C102.168 27.0114 103.111 26.184 104.134 25.863L104.551 26.5763C103.277 27.1848 101.925 27.6214 100.534 27.8744C100.321 28.182 100.127 28.5011 99.9505 28.8302C101.556 28.4879 103.226 28.0385 104.854 27.6462C105.2 28.8468 105.299 30.1043 105.143 31.3435C104.987 32.5826 104.58 33.7778 103.946 34.8573L103.414 35.1355C98.3737 36.1341 93.4273 34.5007 88.4017 35.4993C87.5087 34.2404 86.9385 32.7851 86.7403 31.2591C86.5421 29.733 86.7219 28.1822 87.2641 26.7404L89.2801 26.6833V26.5192C89.0857 25.806 87.5161 25.0927 88.6321 24.3794C89.3278 25.0255 89.9797 25.7165 90.5833 26.4479C90.8235 26.4769 91.0671 26.4648 91.3033 26.4122L89.1433 23.9301C89.3377 23.5378 89.7481 23.3309 90.0577 23.0314L91.8721 23.388C91.9271 22.8811 91.9415 22.3707 91.9153 21.8616C92.3016 21.6403 92.7155 21.47 93.1465 21.3552L94.1905 23.388L95.5153 20.9629L95.6449 20.9772ZM95.6449 22.7247L94.7737 24.6219C94.8318 25.2453 95 25.8536 95.2705 26.4194C96.2929 26.1341 96.0409 24.9928 96.2713 24.2796L95.6449 22.7247ZM92.7649 22.8174C92.8801 23.174 92.4769 24.0371 93.2185 23.8516L92.7649 22.8174ZM90.3601 23.98L91.7209 25.4065C91.7725 25.0639 91.8038 24.7186 91.8145 24.3723C91.3402 24.2058 90.8541 24.0746 90.3601 23.98V23.98ZM97.5601 24.6933L97.6609 24.8217C97.7545 24.7289 97.8697 24.6362 97.8841 24.5078C97.8146 24.5151 97.7477 24.5373 97.688 24.5731C97.6282 24.6088 97.5772 24.6572 97.5385 24.7147L97.5601 24.6933ZM92.8801 24.786V26.4194L93.5641 25.0285C93.3553 24.8645 93.0889 24.8859 92.8801 24.8074V24.786ZM100.75 25.4065C100.505 25.4565 100.31 25.485 100.217 25.4993L99.3097 26.8545C99.4825 26.8545 99.7705 26.8545 99.8929 26.8545L100.75 25.4065ZM97.0345 26.5335L97.1065 28.2453C97.6033 27.418 98.9641 26.719 98.3953 25.592C97.9029 25.866 97.4398 26.1886 97.0129 26.5549L97.0345 26.5335ZM94.5289 27.96L94.1113 26.2839L93.7513 27.097L94.5289 27.96ZM95.9689 27.0185C95.3425 26.9258 95.4001 28.0314 95.9689 28.0884V27.0185ZM90.7417 27.2468L89.9785 28.1812L91.2889 28.7304L92.6569 27.7318C92.4265 26.8901 91.3609 27.4394 90.7201 27.2896L90.7417 27.2468ZM87.7825 27.4108L88.5601 27.8459C88.9777 28.1669 89.0353 27.6605 89.2801 27.4536C88.774 27.4267 88.2669 27.4267 87.7609 27.4536L87.7825 27.4108ZM93.9817 28.8944L93.4345 28.3737C92.6209 28.816 91.9369 29.8787 91.0153 30.2068C90.6193 30.2068 90.3817 30.2068 89.9209 30.2068C90.1354 29.9724 90.3215 29.7138 90.4753 29.4365C90.124 29.2353 89.7384 29.0999 89.3377 29.0371C89.0613 29.4451 88.7506 29.8292 88.4089 30.1854C88.2196 30.2018 88.0293 30.2018 87.8401 30.1854C87.775 31.2178 87.9627 32.2504 88.3873 33.1954C90.5473 33.2667 92.9593 33.552 95.2129 33.8302V30.4779L94.7953 29.8431C94.4114 30.0773 93.9773 30.219 93.5281 30.2568C92.8729 30.2568 92.2681 30.2568 91.6489 30.2568L93.9817 28.8944ZM87.9337 28.4094L87.8401 29.4864C88.0751 29.2404 88.2608 28.9523 88.3873 28.6376L87.9337 28.4094ZM104.22 29.1797C104.207 29.072 104.167 28.9692 104.105 28.8802C103.896 28.9301 103.608 29.0085 103.248 29.087L103.932 30.3495H102.802C102.708 30.2068 102.658 30.0214 102.528 29.8074C102.447 29.6458 102.377 29.479 102.319 29.3081C101.974 29.408 101.304 29.5078 100.879 29.5792C100.98 29.8787 101.052 30.0856 101.146 30.2924H100.231C100.102 30.0713 100.008 29.9572 99.8713 29.7218L96.8185 30.699C96.8174 31.8454 96.9259 32.9894 97.1425 34.1155C99.0624 34.457 101.009 34.6265 102.96 34.6219C104.071 33.0526 104.516 31.1136 104.198 29.2225L104.22 29.1797ZM99.2521 28.0528C99.0604 28.0379 98.8678 28.0379 98.6761 28.0528L97.9201 29.2724C98.1672 29.2459 98.4094 29.1859 98.6401 29.0941L99.2521 28.0528Z" fill="#344049"/>
</g>
<defs>
<clipPath id="clip0_2060_19937">
<rect width="106" height="20" fill="white" transform="translate(0 20)"/>
</clipPath>
</defs>
</svg>
