<svg width="32" height="32" viewBox="0 0 32 32" fill="none" xmlns="http://www.w3.org/2000/svg">
<path fill-rule="evenodd" clip-rule="evenodd" d="M3.55556 32H28.4444C30.4 32 32 30.4 32 28.4444V3.55556C32 1.6 30.4 0 28.4444 0H3.55556C1.6 0 0 1.6 0 3.55556V28.4444C0 30.4 1.6 32 3.55556 32ZM17.7067 15.2H18.9867V8.26669C18.9867 8.1778 18.9689 8.05336 18.9156 7.91114H18.9333L21.9911 13.6356C22.1156 13.8845 22.3111 14.0089 22.5778 14.0089C22.8622 14.0089 23.04 13.8845 23.1644 13.6356L26.2222 7.91114H26.24L26.2245 7.97225C26.1948 8.08895 26.1689 8.19078 26.1689 8.26669V15.2H27.4489V5.99114H26.56C26.08 5.99114 25.8667 6.11558 25.6356 6.52447L22.6667 11.9111C22.6311 11.9822 22.5956 12.1245 22.5778 12.3022H22.56C22.5422 12.1245 22.5067 11.9822 22.4711 11.9111L19.52 6.50669C19.2889 6.0978 19.0933 5.97336 18.6133 5.97336H17.7067V15.2ZM5.33328 21.2445C5.33328 19.2889 6.87995 17.76 8.83551 17.76C10.7911 17.76 12.32 19.2889 12.32 21.2445C12.32 23.2 10.7911 24.7289 8.83551 24.7289C6.86217 24.7289 5.33328 23.2 5.33328 21.2445ZM4.05328 21.2445C4.05328 23.9111 6.15106 26.0089 8.83551 26.0089C11.52 26.0089 13.6177 23.9111 13.6177 21.2445C13.6177 18.56 11.52 16.4622 8.83551 16.4622C6.15106 16.4622 4.05328 18.56 4.05328 21.2445ZM18.0444 26.0267C15.8222 26.0267 14.3289 24.5156 14.3289 22.2933L14.3111 16.6222H14.8978C15.2889 16.6222 15.5911 16.9422 15.5911 17.3156V22.2933C15.5911 23.7333 16.5689 24.7289 18.0267 24.7289C19.5022 24.7289 20.48 23.7511 20.48 22.2933V17.3156C20.48 16.9244 20.8 16.6222 21.1733 16.6222H21.7778V22.2933C21.7778 24.5156 20.2844 26.0267 18.0444 26.0267ZM25.12 16.4445C23.52 16.4445 22.4 17.4756 22.4 18.9333C22.4 20.0711 23.1822 20.9067 24.9244 21.5467C26.1511 22.0445 26.7022 22.5245 26.7022 23.2178C26.7022 24.2133 25.9377 24.7467 24.8711 24.7289C24.3911 24.7111 23.6977 24.4445 23.1822 24.0356C22.8622 23.7867 22.5066 23.9289 22.3111 24.1956L22.0089 24.6222C22.6844 25.3867 23.7511 26.0089 24.8888 26.0089C26.72 26.0089 27.9822 24.8533 27.9822 23.2C27.9822 21.8667 27.1111 20.9245 25.28 20.3022C24.1777 19.8933 23.68 19.4845 23.68 18.9156C23.68 18.1689 24.2844 17.7245 25.1377 17.7245C25.4577 17.7245 25.9555 17.8311 26.4 18.1333C26.4088 18.1422 26.4222 18.1467 26.4355 18.1511L26.4355 18.1511C26.4488 18.1556 26.4622 18.16 26.4711 18.1689C26.6311 18.24 26.8977 18.2756 27.1466 17.9911C27.1888 17.9489 27.2199 17.9067 27.2574 17.8557L27.2575 17.8557C27.2674 17.8423 27.2777 17.8282 27.2888 17.8133L27.5022 17.4222C26.8977 16.7822 25.92 16.4445 25.12 16.4445ZM5.68889 15.2H4.40889L4.39111 5.99112H10.9511L10.3644 7.27112H5.67111V10.08H9.13778C9.08445 10.1867 9.03556 10.2889 8.98667 10.3911C8.93778 10.4933 8.88889 10.5956 8.83556 10.7022C8.65778 11.0933 8.24889 11.3422 7.80445 11.3422H5.68889V15.2ZM10.7555 11.9645L11.0222 11.36L12.5511 7.66223L14.08 11.36L14.3467 11.9645H10.7555ZM11.9822 5.99112L7.94666 15.2H8.78221C9.13777 15.2 9.43999 15.0045 9.58221 14.7022L10.2222 13.2089H11.36H13.76H14.8978L15.5378 14.7022C15.68 15.0222 15.9644 15.2 16.3378 15.2H17.1733L13.1378 5.99112H13.12H11.9822Z" fill="#D50032"/>
</svg>
