<svg width="47" height="60" viewBox="0 0 47 60" fill="none" xmlns="http://www.w3.org/2000/svg">
<rect width="47" height="60" fill="white"/>
<path d="M30.8443 34.9993H40.099L28.1351 14L21.221 18.045L30.8443 34.9993ZM20.6297 37.0063V34.9993H27.9021L20.1447 21.3791L13.216 25.4078L18.6503 34.9993V37.0063H20.6297ZM5.1425 32.6125L6.48104 34.9993H15.7154L12.0566 28.5838L5.1425 32.6125ZM27.9094 34.9993V38.3985C27.2925 37.9648 26.5704 37.7107 25.8214 37.6638C25.0723 37.6168 24.3249 37.7788 23.6601 38.132C22.9953 38.4853 22.4384 39.0165 22.0499 39.668C21.6614 40.3195 21.456 41.0664 21.456 41.8279C21.456 42.5894 21.6614 43.3363 22.0499 43.9878C22.4384 44.6393 22.9953 45.1705 23.6601 45.5238C24.3249 45.8771 25.0723 46.039 25.8214 45.9921C26.5704 45.9451 27.2925 45.691 27.9094 45.2574V45.8249H29.8859V34.9993H27.9094ZM15.7154 34.9993V38.3985C15.0985 37.9648 14.3764 37.7107 13.6274 37.6638C12.8783 37.6168 12.1309 37.7788 11.4661 38.132C10.8013 38.4853 10.2445 39.0165 9.85593 39.668C9.46741 40.3195 9.26202 41.0664 9.26202 41.8279C9.26202 42.5894 9.46741 43.3363 9.85593 43.9878C10.2445 44.6393 10.8013 45.1705 11.4661 45.5238C12.1309 45.8771 12.8783 46.039 13.6274 45.9921C14.3764 45.9451 15.0985 45.691 15.7154 45.2574V45.8249H17.6933V34.9993H15.7154ZM39.8689 43.2001C39.93 44.8258 41.3006 45.98 43.5903 45.98C45.459 45.98 47 45.1583 47 43.342C47 42.0784 46.2994 41.335 44.6798 41.0188L43.4184 40.7661C42.6086 40.6079 42.0478 40.4498 42.0478 39.9606C42.0478 39.4227 42.594 39.1862 43.2786 39.1862C44.2748 39.1862 44.6798 39.6916 44.7118 40.2916H46.697C46.5878 38.7118 45.3425 37.6536 43.3339 37.6536C41.2628 37.6536 40.032 38.8064 40.032 40.3138C40.032 42.1464 41.4885 42.4464 42.7572 42.6784L43.8015 42.8676C44.5487 43.0154 44.8749 43.2312 44.8749 43.6731C44.8749 44.0691 44.5021 44.4637 43.6136 44.4637C42.3217 44.4637 41.9007 43.7839 41.8862 43.2001H39.8689ZM37.1583 45.8219H39.1362V37.7482H37.151V38.3955C36.5341 37.9619 35.812 37.7078 35.063 37.6608C34.314 37.6139 33.5665 37.7758 32.9017 38.1291C32.2369 38.4824 31.6801 39.0135 31.2916 39.665C30.903 40.3165 30.6976 41.0635 30.6976 41.825C30.6976 42.5864 30.903 43.3334 31.2916 43.9849C31.6801 44.6364 32.2369 45.1675 32.9017 45.5208C33.5665 45.8741 34.314 46.0361 35.063 45.9891C35.812 45.9421 36.5341 45.6881 37.151 45.2544V45.8219H37.1583ZM6.45337 45.8219H8.43569V37.7482H6.45337V38.3955C5.83648 37.9619 5.1144 37.7078 4.36536 37.6608C3.61632 37.6139 2.86889 37.7758 2.20409 38.1291C1.53928 38.4824 0.982439 39.0135 0.593915 39.665C0.205391 40.3165 0 41.0635 0 41.825C0 42.5864 0.205391 43.3334 0.593915 43.9849C0.982439 44.6364 1.53928 45.1675 2.20409 45.5208C2.86889 45.8741 3.61632 46.0361 4.36536 45.9891C5.1144 45.9421 5.83648 45.6881 6.45337 45.2544V45.8219ZM20.6239 45.8219V37.7482H18.6517V45.8219H20.6239ZM1.9265 41.8213C1.9265 41.365 2.05985 40.919 2.30967 40.5396C2.5595 40.1602 2.9146 39.8645 3.33005 39.6899C3.7455 39.5153 4.20265 39.4696 4.64369 39.5586C5.08473 39.6476 5.48985 39.8673 5.80783 40.19C6.1258 40.5126 6.34234 40.9237 6.43007 41.3712C6.5178 41.8187 6.47277 42.2826 6.30069 42.7041C6.1286 43.1257 5.83719 43.486 5.46329 43.7395C5.08939 43.9929 4.64981 44.1282 4.20013 44.1282C3.90123 44.1294 3.60505 44.0706 3.32868 43.955C3.05231 43.8395 2.80121 43.6696 2.58985 43.4552C2.3785 43.2407 2.21107 42.9859 2.09722 42.7055C1.98336 42.4251 1.92534 42.1246 1.9265 41.8213ZM11.1769 41.8213C11.1774 41.3649 11.3114 40.9189 11.5619 40.5398C11.8123 40.1606 12.1679 39.8654 12.5838 39.6914C12.9996 39.5175 13.457 39.4725 13.898 39.5624C14.339 39.6522 14.7438 39.8727 15.0613 40.1961C15.3787 40.5194 15.5945 40.9311 15.6814 41.3789C15.7682 41.8267 15.7222 42.2906 15.5491 42.7119C15.376 43.1331 15.0837 43.4928 14.7091 43.7455C14.3345 43.9981 13.8945 44.1324 13.4447 44.1312C13.146 44.1316 12.8502 44.0721 12.5743 43.956C12.2984 43.8399 12.0479 43.6697 11.8371 43.455C11.6264 43.2403 11.4595 42.9854 11.3462 42.705C11.2329 42.4247 11.1753 42.1243 11.1769 41.8213ZM32.6198 41.8213C32.6198 41.365 32.7531 40.919 33.0029 40.5396C33.2528 40.1602 33.6079 39.8645 34.0233 39.6899C34.4388 39.5153 34.8959 39.4696 35.337 39.5586C35.778 39.6476 36.1831 39.8673 36.5011 40.19C36.8191 40.5126 37.0356 40.9237 37.1233 41.3712C37.2111 41.8187 37.166 42.2826 36.994 42.7041C36.8219 43.1257 36.5305 43.486 36.1566 43.7395C35.7827 43.9929 35.3431 44.1282 34.8934 44.1282C34.5945 44.1294 34.2983 44.0706 34.0219 43.955C33.7456 43.8395 33.4945 43.6696 33.2831 43.4552C33.0718 43.2407 32.9043 42.9859 32.7905 42.7055C32.6766 42.4251 32.6186 42.1246 32.6198 41.8213ZM23.3694 41.8213C23.3694 41.365 23.5027 40.919 23.7526 40.5396C24.0024 40.1602 24.3575 39.8645 24.7729 39.6899C25.1884 39.5153 25.6456 39.4696 26.0866 39.5586C26.5276 39.6476 26.9328 39.8673 27.2507 40.19C27.5687 40.5126 27.7852 40.9237 27.873 41.3712C27.9607 41.8187 27.9157 42.2826 27.7436 42.7041C27.5715 43.1257 27.2801 43.486 26.9062 43.7395C26.5323 43.9929 26.0927 44.1282 25.643 44.1282C25.3441 44.1294 25.048 44.0706 24.7716 43.955C24.4952 43.8395 24.2441 43.6696 24.0328 43.4552C23.8214 43.2407 23.654 42.9859 23.5401 42.7055C23.4263 42.4251 23.3682 42.1246 23.3694 41.8213Z" fill="#344049"/>
</svg>
