<svg width="53" height="60" viewBox="0 0 53 60" fill="none" xmlns="http://www.w3.org/2000/svg">
<g clip-path="url(#clip0_1963_37066)">
<rect width="53" height="60" fill="white"/>
<g clip-path="url(#clip1_1963_37066)">
<path d="M34.5764 34.8178C34.5365 34.758 34.4966 34.6981 34.4168 34.6981C34.3807 34.7159 34.3514 34.7451 34.3334 34.7811C34.3154 34.8171 34.3097 34.858 34.3171 34.8976C34.3389 34.9338 34.3708 34.963 34.4088 34.9816C34.4469 35.0002 34.4895 35.0074 34.5315 35.0023C34.5166 34.9424 34.6163 34.9025 34.5764 34.8178Z" fill="#344049"/>
<path d="M36.9989 33.9839C36.8791 34.1038 37.0389 34.2287 37.1338 34.2287C37.3935 34.0888 37.2936 34.3335 37.2836 34.4334C37.1887 34.9229 36.909 35.3324 36.7842 35.8019C36.3232 36.7181 35.7272 37.5599 35.0161 38.2991C34.8079 38.5788 34.5664 38.8321 34.2969 39.0533C33.5044 39.7594 32.6018 40.3313 31.6249 40.7464C31.4301 40.9112 31.1504 40.9262 30.9307 41.0711C30.5311 41.1859 30.1365 41.3058 29.717 41.3857C29.2024 41.5137 28.6777 41.5973 28.1487 41.6354C27.914 41.7303 27.5744 41.6304 27.3197 41.7303C27.1569 41.6806 26.983 41.6806 26.8202 41.7303C26.5056 41.6055 26.0711 41.7653 25.7714 41.5555C25.4967 41.6754 25.242 41.4706 24.9423 41.4706C22.9767 41.096 21.155 40.1791 19.6831 38.8236C19.5833 38.6388 19.3885 38.5738 19.2486 38.389C18.909 38.0215 18.589 37.6364 18.2897 37.2353C17.9377 36.717 17.6383 36.1649 17.3957 35.5872C17.3919 35.5577 17.3976 35.5277 17.4119 35.5017C17.4263 35.4756 17.4486 35.4548 17.4756 35.4423C17.5355 35.4873 17.6154 35.4273 17.6154 35.4873C17.5995 35.5437 17.6043 35.604 17.6291 35.6571C17.6538 35.7103 17.6968 35.7528 17.7503 35.7769C17.8851 35.8569 17.985 35.5122 18.0849 35.7769C18.1848 36.0416 18.5344 36.0866 18.5344 36.3963C18.7142 36.4812 18.8541 36.5411 18.8091 36.7858C18.909 37.0156 19.1288 36.7509 19.2237 36.9357C19.1942 36.9457 19.1673 36.9621 19.1447 36.9836C19.1222 37.0051 19.1046 37.0313 19.0932 37.0603C19.0818 37.0892 19.0769 37.1204 19.0787 37.1514C19.0805 37.1825 19.0891 37.2129 19.1038 37.2403C19.116 37.2564 19.1313 37.2699 19.1489 37.2799C19.1664 37.2899 19.1858 37.2962 19.2058 37.2986C19.2259 37.3009 19.2462 37.2992 19.2656 37.2934C19.285 37.2877 19.303 37.2782 19.3186 37.2653C19.3585 37.2054 19.4234 37.1205 19.4784 37.2054C19.5838 37.2502 19.6155 37.3506 19.6601 37.4354C19.6711 37.4473 19.6794 37.461 19.684 37.4765C19.7214 37.533 19.7732 37.5749 19.8729 37.5749C19.9878 37.7398 19.9878 38.0095 20.2425 38.0095C20.3824 38.0944 20.2275 38.2542 20.3824 38.3391C20.5372 38.424 20.5572 38.1143 20.757 38.2192C20.9567 38.3241 20.8119 38.6338 21.0916 38.6338C21.2264 38.7337 21.1665 39.1033 21.4462 38.9834C21.4861 38.8835 21.5411 38.8236 21.7009 38.8835C21.8607 38.9434 21.7409 39.2331 21.9556 39.2331C22.1554 39.358 22.2753 39.0134 22.4101 39.2581C22.4301 39.338 22.4451 39.358 22.3502 39.338C22.2553 39.318 22.1604 39.293 22.1354 39.3979C22.1105 39.5028 22.1704 39.6027 22.2503 39.6027C22.4101 39.5877 22.51 39.2381 22.7098 39.4678C22.8247 39.5677 22.7298 39.8175 22.9046 39.8175C23.0794 39.8175 23.3391 39.4479 23.459 39.8175C23.419 39.8974 23.5139 40.0222 23.5938 40.0222C23.8385 40.0872 23.8785 39.6976 24.0933 39.9223C24.1732 40.0072 24.1332 40.212 24.313 40.212C24.5278 40.2969 24.5128 39.9074 24.7475 40.0722C24.9073 40.1371 24.7625 40.3818 24.9623 40.3818C25.202 40.4667 25.222 40.0572 25.4617 40.242C25.5966 40.3069 25.4567 40.5317 25.6365 40.5317C25.8763 40.6365 25.9012 40.207 26.136 40.3718C26.2958 40.4368 26.1909 40.5966 26.3308 40.6615C26.4706 40.7264 26.5305 40.5616 26.5905 40.4817C26.7103 40.4817 26.8302 40.5616 26.9451 40.5067C26.9701 40.4418 27.03 40.3619 27.03 40.257C26.9762 40.2188 26.9155 40.1916 26.8512 40.1771C26.7869 40.1625 26.7204 40.1608 26.6554 40.1721C26.6249 40.2103 26.5848 40.2398 26.5391 40.2573C26.4935 40.2749 26.444 40.2799 26.3957 40.272C26.3158 40.1721 26.3008 40.0222 26.141 39.9823C25.9812 39.9423 25.8563 40.202 25.7414 40.1021C25.6265 40.0023 25.5616 39.8125 25.4268 39.7925C25.2919 39.7725 25.1071 40.1371 25.0122 39.8324C24.9523 39.7475 24.9173 39.6027 24.7775 39.6027C24.6177 39.5577 24.363 39.9074 24.363 39.5577C24.2631 39.373 23.8485 39.4928 23.9884 39.2081C23.9957 39.1626 23.9886 39.116 23.968 39.0747C23.9474 39.0335 23.9143 38.9998 23.8735 38.9784C23.8261 38.9756 23.7791 38.9882 23.7395 39.0143C23.6999 39.0404 23.6698 39.0786 23.6537 39.1232C23.6537 39.1632 23.5938 39.2031 23.5938 39.2031C23.4868 39.176 23.3897 39.1188 23.3141 39.0383C23.3324 38.9976 23.3349 38.9515 23.321 38.909C23.3072 38.8665 23.278 38.8307 23.2392 38.8086C23.0244 38.6438 22.8796 39.0134 22.7647 38.7037C22.8646 38.7237 23.0644 38.7686 23.0644 38.5838C23.0644 38.4989 23.0444 38.3591 22.9445 38.3591C22.6299 38.2292 22.7048 38.8885 22.4101 38.4939C22.3152 38.414 22.4101 38.3191 22.4101 38.2342C22.4279 38.2541 22.4502 38.2695 22.475 38.2792L22.6698 38.3091C22.6908 38.3103 22.7118 38.3064 22.7309 38.2977C22.7501 38.289 22.7668 38.2758 22.7797 38.2592C22.8046 38.2262 22.8169 38.1855 22.8147 38.1443C22.8171 38.1261 22.8171 38.1076 22.8147 38.0894C22.8147 37.9995 22.7497 37.9046 22.5999 37.9046C22.4501 37.9046 22.4101 38.0544 22.4101 38.1493V38.1993C22.4082 38.2075 22.4082 38.216 22.4101 38.2242C22.3102 38.1543 22.1055 38.1493 22.1055 38.0644C22.1055 37.9795 22.1654 37.9196 22.1055 37.8147C22.0455 37.7098 21.9456 37.7098 21.8457 37.7098C21.7858 37.7947 21.7858 38.0394 21.626 37.9146C21.5771 37.8701 21.532 37.8217 21.4911 37.7697C21.4712 37.7098 21.5111 37.5999 21.591 37.6249C21.6709 37.6499 21.7309 37.6499 21.8108 37.6499H21.8108C21.8414 37.6138 21.8613 37.5699 21.8683 37.5232C21.8754 37.4764 21.8693 37.4286 21.8507 37.3852C21.8266 37.3413 21.7882 37.3069 21.7419 37.2879C21.6955 37.2688 21.6441 37.2661 21.596 37.2803C21.5161 37.3602 21.5311 37.545 21.3962 37.545C21.3523 37.5436 21.3097 37.5291 21.2741 37.5032C21.2385 37.4774 21.2114 37.4415 21.1965 37.4001C21.1913 37.3571 21.1978 37.3136 21.2154 37.274C21.233 37.2344 21.261 37.2003 21.2964 37.1754L21.2982 37.1758C21.3989 37.1959 21.616 37.2393 21.616 37.0755C21.6241 37.0272 21.6174 36.9775 21.5969 36.933C21.5765 36.8885 21.5431 36.8511 21.5011 36.8258C21.4771 36.8161 21.4511 36.8123 21.4254 36.8149C21.3996 36.8174 21.3748 36.8262 21.3532 36.8405C21.3316 36.8547 21.3138 36.874 21.3012 36.8967C21.2887 36.9194 21.2819 36.9447 21.2814 36.9706C21.2756 37.0056 21.259 37.0379 21.2339 37.063C21.2088 37.0881 21.1765 37.1047 21.1415 37.1105C21.0946 37.1006 21.0513 37.0783 21.0161 37.0457C20.9809 37.0132 20.9552 36.9717 20.9418 36.9257C20.9475 36.8849 20.964 36.8463 20.9894 36.8139C21.0148 36.7814 21.0483 36.7562 21.0866 36.7409H21.3014C21.4012 36.641 21.3413 36.3713 21.621 36.4562C21.9007 36.5411 21.8058 36.0267 22.1204 36.2364C22.2753 36.3413 22.0555 36.5611 22.2753 36.626C22.3252 36.6338 22.3763 36.6242 22.42 36.5987C22.4637 36.5732 22.4972 36.5335 22.515 36.4862C22.6548 36.2165 21.9806 36.2714 22.3802 35.9867C22.4242 35.9852 22.4675 35.9988 22.5029 36.0251C22.5382 36.0514 22.5637 36.0889 22.5749 36.1316C22.495 36.2764 22.6149 36.3813 22.7298 36.3813C22.9495 36.4412 23.0744 35.8918 23.2891 36.2814C23.2771 36.3064 23.2705 36.3337 23.2699 36.3614C23.2692 36.3892 23.2745 36.4168 23.2854 36.4423C23.2963 36.4678 23.3125 36.4907 23.3329 36.5095C23.3534 36.5283 23.3776 36.5425 23.404 36.5511C23.6987 36.616 23.6437 36.0816 23.9434 36.3513C23.9984 36.4312 23.8985 36.7009 24.0982 36.7009C24.1398 36.7037 24.1811 36.693 24.2162 36.6705C24.2512 36.6481 24.2782 36.615 24.293 36.5761C24.3979 36.2914 23.9184 36.4712 24.0833 36.1665C24.1022 36.1338 24.1328 36.1094 24.1689 36.0983C24.205 36.0872 24.244 36.0902 24.278 36.1066C24.4778 36.1915 24.2181 36.5161 24.5128 36.4762C24.8324 36.606 24.7176 36.1116 25.0122 36.2564C25.207 36.3413 24.8924 36.5611 25.207 36.646C25.5217 36.7309 25.4068 36.2414 25.7065 36.4062C26.0361 36.3663 25.6216 36.8957 26.0361 36.7808C26.0723 36.7564 26.0988 36.7199 26.1106 36.6778C26.1225 36.6358 26.1191 36.5909 26.101 36.5511C26.0411 36.4912 25.9412 36.4912 25.8813 36.4262C25.9012 36.3263 25.9412 36.1865 26.0411 36.1865C26.141 36.1865 26.2209 36.2864 26.2209 36.3913C26.161 36.4912 26.2758 36.5761 26.3358 36.5761C26.5955 36.641 26.6954 36.0666 26.9301 36.4612C26.9107 36.5098 26.9102 36.5639 26.9287 36.6129C26.9472 36.6619 26.9833 36.7022 27.03 36.7259C27.0767 36.7291 27.1233 36.7172 27.1628 36.692C27.2024 36.6669 27.2328 36.6297 27.2497 36.586C27.3297 36.3413 26.8901 36.4412 27.055 36.1965L27.0561 36.194C27.0952 36.1109 27.1111 36.0772 27.2298 36.1365C27.3496 36.1965 27.3097 36.3213 27.2697 36.4212C27.3162 36.4653 27.3734 36.4963 27.4357 36.5112C27.4979 36.5261 27.563 36.5244 27.6243 36.5061C27.6843 36.4262 27.7042 36.2814 27.8041 36.2614C27.904 36.2414 28.0289 36.2414 28.0239 36.3663C28.0189 36.4912 28.0189 36.636 28.1587 36.656C28.2986 36.6759 28.3585 36.5161 28.4185 36.4112C28.5183 36.4112 28.7131 36.4961 28.7531 36.4112C28.793 36.3263 28.838 36.1865 28.9329 36.1865C28.9753 36.1847 29.0175 36.1933 29.0558 36.2116C29.0941 36.2299 29.1274 36.2573 29.1526 36.2914C29.1327 36.3913 29.1327 36.5561 29.2475 36.5561C29.2712 36.5636 29.2962 36.5658 29.3209 36.5626C29.3455 36.5594 29.3691 36.5508 29.3901 36.5375C29.411 36.5242 29.4288 36.5064 29.4421 36.4854C29.4555 36.4645 29.4641 36.4409 29.4673 36.4162C29.5672 36.2115 29.0128 36.1865 29.3724 35.9667C29.4141 35.9677 29.4543 35.9825 29.4868 36.0087C29.5194 36.0349 29.5423 36.071 29.5522 36.1116C29.4523 36.2314 29.5872 36.3363 29.707 36.3363C29.9617 36.3813 29.9667 35.8668 30.2614 36.1365C30.3413 36.0566 30.3813 35.8718 30.4812 35.8519C30.581 35.8319 30.641 35.9168 30.6809 35.9767C30.6714 36.0006 30.6669 36.0262 30.6676 36.0519C30.6682 36.0776 30.6741 36.1028 30.6849 36.1262C30.6956 36.1496 30.711 36.1705 30.73 36.1877C30.7491 36.2049 30.7715 36.2181 30.7958 36.2264C30.8412 36.2342 30.8879 36.2259 30.9279 36.2032C30.968 36.1804 30.9989 36.1445 31.0156 36.1016C31.1554 35.8169 30.6809 35.9767 30.8208 35.692C30.8607 35.6521 30.9606 35.5722 31.0206 35.6521C31.2153 35.737 30.9157 36.0017 31.2153 36.0017C31.2403 36.0085 31.2663 36.0102 31.2919 36.0068C31.3175 36.0034 31.3422 35.995 31.3645 35.982C31.3868 35.9689 31.4063 35.9516 31.4218 35.931C31.4374 35.9104 31.4487 35.8869 31.4551 35.8618C31.4689 35.8296 31.4909 35.8015 31.5189 35.7805C31.547 35.7595 31.5801 35.7462 31.6149 35.742C31.7148 35.762 31.8846 35.762 31.8896 35.682C31.8946 35.6021 31.9745 35.5622 32.0145 35.5172C32.0555 35.5193 32.0956 35.5297 32.1326 35.5477C32.1695 35.5658 32.2023 35.5911 32.2292 35.6221C32.2187 35.6473 32.2133 35.6744 32.2134 35.7017C32.2136 35.729 32.2191 35.756 32.2298 35.7812C32.2405 35.8063 32.2562 35.829 32.2758 35.848C32.2954 35.867 32.3186 35.8819 32.3441 35.8918C32.388 35.8929 32.4315 35.8825 32.4701 35.8614C32.5087 35.8404 32.541 35.8095 32.5638 35.7719C32.6288 35.5472 32.1343 35.4573 32.469 35.2975C32.5489 35.2975 32.6288 35.3824 32.6288 35.4423C32.5489 35.5672 32.7037 35.6271 32.7836 35.6721C33.0034 35.712 32.9434 35.4074 33.1432 35.4074C33.4978 35.5921 33.4029 34.9379 33.7775 35.1876C33.8974 35.1277 33.9423 34.798 34.1371 34.9678C34.217 35.0877 34.192 35.3324 34.4318 35.2575C34.5516 35.1926 34.5516 35.0927 34.5516 34.9878C34.6715 34.9878 34.8513 35.0478 34.9112 34.9878C34.9712 34.9279 34.9912 34.843 35.0711 34.783C35.3458 34.9728 35.3108 34.5233 35.5705 34.5233C35.6255 34.5233 35.7054 34.5883 35.7653 34.5233C35.7807 34.4744 35.8066 34.4295 35.8411 34.3915C35.8756 34.3536 35.9179 34.3236 35.9651 34.3036C36.0077 34.3004 36.0504 34.3083 36.0889 34.3267C36.1275 34.3451 36.1605 34.3733 36.1848 34.4085C36.1771 34.4307 36.1739 34.4544 36.1756 34.4779C36.1772 34.5014 36.1836 34.5243 36.1943 34.5453C36.205 34.5663 36.2199 34.585 36.238 34.6001C36.2561 34.6152 36.2771 34.6264 36.2997 34.6332C36.317 34.6361 36.3348 34.6352 36.3517 34.6305C36.3687 34.6258 36.3844 34.6175 36.3977 34.606C36.411 34.5946 36.4217 34.5804 36.4289 34.5643C36.4362 34.5483 36.4398 34.5309 36.4395 34.5133C36.4795 34.3086 36.1249 34.3635 36.2847 34.1438C36.3001 34.124 36.3198 34.1081 36.3423 34.0971C36.3648 34.0861 36.3895 34.0804 36.4146 34.0804C36.4396 34.0804 36.4643 34.0861 36.4868 34.0971C36.5093 34.1081 36.529 34.124 36.5444 34.1438C36.6593 34.2287 36.4795 34.4284 36.6993 34.4534C36.7516 34.4552 36.8031 34.4402 36.8463 34.4105C36.8894 34.3808 36.9219 34.3381 36.939 34.2886C37.0189 34.0439 36.6193 34.1837 36.7442 33.919C36.8041 33.7792 36.9989 33.8391 36.9989 33.9839Z" fill="#344049"/>
<path d="M24.6075 40.4717C24.6051 40.4635 24.6051 40.4549 24.6075 40.4467C24.6075 40.4467 24.5975 40.4317 24.6075 40.4717Z" fill="#344049"/>
<path d="M21.3858 36.3757C21.4204 36.3642 21.4506 36.3422 21.4721 36.3127C21.4935 36.2832 21.5052 36.2477 21.5055 36.2112C21.4893 36.166 21.4605 36.1265 21.4225 36.0973C21.3845 36.0681 21.3388 36.0505 21.2911 36.0466C21.2519 36.0639 21.2189 36.0927 21.1966 36.1293C21.1743 36.1658 21.1638 36.2083 21.1664 36.2511C21.183 36.2939 21.2139 36.3298 21.2539 36.3525C21.2939 36.3752 21.3405 36.3834 21.3858 36.3757Z" fill="#344049"/>
<path d="M21.0913 35.8416C21.1006 35.8378 21.109 35.8322 21.116 35.8251C21.1231 35.818 21.1286 35.8095 21.1324 35.8002C21.1361 35.7909 21.1379 35.781 21.1377 35.7709C21.1375 35.7609 21.1353 35.751 21.1312 35.7419C21.1312 35.6571 21.0165 35.717 20.9966 35.7768C21.0031 35.7965 21.0159 35.8135 21.033 35.8252C21.0501 35.8369 21.0706 35.8427 21.0913 35.8416Z" fill="#344049"/>
<path d="M22.8747 35.9765C22.8747 35.9765 22.9345 35.9366 22.9146 35.8717C22.8946 35.8069 22.9146 35.8319 22.8747 35.8319C22.8348 35.8319 22.7949 35.9416 22.8747 35.9765Z" fill="#344049"/>
<path d="M21.8055 36.0712C21.8055 36.0313 21.8654 36.0114 21.8654 35.9516C21.8654 35.8917 21.8055 35.8468 21.7457 35.8269C21.6933 35.8676 21.6578 35.9262 21.646 35.9914C21.6859 36.0313 21.7258 36.0912 21.8055 36.0712Z" fill="#344049"/>
<path d="M20.6718 36.1263C20.6718 36.1263 20.7516 36.0614 20.7566 36.0216C20.7167 35.9019 20.5571 35.8969 20.5571 36.0216C20.5648 36.0478 20.5796 36.0715 20.5998 36.09C20.62 36.1084 20.6449 36.121 20.6718 36.1263Z" fill="#344049"/>
<path d="M23.5635 36.211C23.6034 36.1711 23.7031 36.1312 23.6881 36.0514C23.6732 35.9716 23.5086 35.8869 23.4687 36.0065C23.4289 36.1262 23.4737 36.191 23.5635 36.211Z" fill="#344049"/>
<path d="M20.2574 36.3661C20.2817 36.3356 20.3019 36.3021 20.3173 36.2663C20.2774 36.2015 20.1378 36.1616 20.1577 36.2663C20.1776 36.371 20.1976 36.3661 20.2574 36.3661Z" fill="#344049"/>
<path d="M20.9266 36.6205C21.0064 36.5756 21.0862 36.5158 21.0662 36.4161C21.0531 36.3816 21.0288 36.3525 20.9971 36.3335C20.9655 36.3145 20.9284 36.3067 20.8917 36.3114C20.8577 36.3229 20.8277 36.3442 20.8056 36.3725C20.7834 36.4009 20.77 36.4351 20.7671 36.4709C20.807 36.5357 20.8469 36.6155 20.9266 36.6205Z" fill="#344049"/>
<path d="M20.5668 36.7806C20.5756 36.753 20.5756 36.7234 20.5668 36.6958C20.5668 36.6559 20.512 36.5961 20.4522 36.616C20.3923 36.636 20.4771 36.7556 20.5668 36.7806Z" fill="#344049"/>
<path d="M32.9631 35.2572C32.998 35.2572 33.0229 35.1974 33.0229 35.1525C33.0229 35.1077 32.9631 35.0728 32.9232 35.0728C32.8833 35.0728 32.8035 35.1326 32.8235 35.1924C32.8434 35.2523 32.8883 35.3171 32.9631 35.2572Z" fill="#344049"/>
<path d="M33.3429 34.9776C33.3429 34.9776 33.4028 34.9377 33.4028 34.8978C33.3954 34.8825 33.3849 34.8688 33.3721 34.8577C33.3592 34.8465 33.3442 34.8381 33.328 34.833C33.2083 34.8879 33.2881 34.9776 33.3429 34.9776Z" fill="#344049"/>
<path d="M31.3749 35.6317C31.4147 35.6317 31.4746 35.547 31.4596 35.4871C31.447 35.4666 31.4285 35.4504 31.4065 35.4406C31.3845 35.4307 31.36 35.4278 31.3363 35.4321C31.3126 35.4364 31.2907 35.4478 31.2736 35.4647C31.2565 35.4817 31.2448 35.5034 31.2402 35.527C31.2602 35.5669 31.32 35.6317 31.3749 35.6317Z" fill="#344049"/>
<path d="M30.3063 35.602C30.3063 35.602 30.2664 35.5571 30.2514 35.5571C30.2365 35.5571 30.1716 35.617 30.2514 35.6618C30.3312 35.7067 30.2664 35.6219 30.3063 35.602Z" fill="#344049"/>
<path d="M34.8909 34.6578C34.9308 34.6179 34.9707 34.598 34.9757 34.5581C34.9358 34.4335 34.7962 34.4733 34.7762 34.5581C34.7563 34.6429 34.8311 34.7027 34.8909 34.6578Z" fill="#344049"/>
<path d="M24.6774 36.0813C24.6774 36.0564 24.7771 36.0414 24.7571 35.9766C24.7478 35.9583 24.7335 35.943 24.7159 35.9324C24.6982 35.9218 24.678 35.9164 24.6574 35.9168C24.6175 35.9168 24.5776 35.9766 24.5976 36.0165C24.6175 36.0564 24.6375 36.0813 24.6774 36.0813Z" fill="#344049"/>
<path d="M35.3506 34.2935C35.3506 34.2137 35.2359 34.2536 35.2509 34.3334C35.2658 34.4131 35.2907 34.3782 35.3107 34.3782C35.3306 34.3782 35.3705 34.3384 35.3506 34.2935Z" fill="#344049"/>
<path d="M37.1586 33.759C37.171 33.7812 37.1881 33.8003 37.2088 33.815C37.2295 33.8296 37.2533 33.8395 37.2783 33.8437C37.3381 33.8437 37.3581 33.764 37.3581 33.7191C37.3182 33.5595 37.1437 33.6343 37.1586 33.759Z" fill="#344049"/>
<path d="M27.6688 36.0265C27.6289 36.0265 27.609 35.9418 27.5691 35.9418C27.5292 35.9418 27.4694 36.0465 27.5292 36.0864C27.5891 36.1263 27.6489 36.0664 27.6688 36.0265Z" fill="#344049"/>
<path d="M26.4702 36.1961C26.5301 36.1961 26.57 36.1363 26.57 36.0765C26.5628 36.053 26.5483 36.0324 26.5285 36.0178C26.5088 36.0031 26.4849 35.9952 26.4603 35.9952C26.4357 35.9952 26.4118 36.0031 26.392 36.0178C26.3723 36.0324 26.3578 36.053 26.3506 36.0765C26.3805 36.1363 26.4204 36.1961 26.4702 36.1961Z" fill="#344049"/>
<path d="M28.2982 36.3607C28.3309 36.3379 28.3571 36.3072 28.3746 36.2714C28.392 36.2356 28.4001 36.196 28.398 36.1563C28.3631 36.1164 28.3032 36.0316 28.2235 36.0516C28.1437 36.0715 28.1038 36.1513 28.1237 36.2361C28.1437 36.3208 28.2185 36.3807 28.2982 36.3607Z" fill="#344049"/>
<path d="M25.3464 36.3109C25.3654 36.3085 25.3836 36.3023 25.4 36.2926C25.4164 36.2829 25.4306 36.2699 25.4419 36.2545C25.4531 36.2391 25.461 36.2215 25.4652 36.2029C25.4693 36.1843 25.4697 36.1651 25.4661 36.1464C25.4661 36.0865 25.3913 36.0666 25.3315 36.0466C25.298 36.056 25.2692 36.0776 25.2507 36.1071C25.2323 36.1366 25.2255 36.1719 25.2318 36.2062C25.2517 36.2511 25.3066 36.3109 25.3464 36.3109Z" fill="#344049"/>
<path d="M29.8269 35.9764C29.8668 35.9764 29.9466 35.9165 29.9316 35.8567C29.9166 35.7969 29.8518 35.7321 29.792 35.7719C29.7322 35.8118 29.6923 35.8118 29.7122 35.8766C29.7177 35.9036 29.7319 35.928 29.7526 35.946C29.7733 35.964 29.7995 35.9747 29.8269 35.9764Z" fill="#344049"/>
<path d="M28.6978 36.0164C28.7377 36.0164 28.7776 35.9765 28.7776 35.9117C28.7776 35.8469 28.623 35.8718 28.6181 35.9516C28.6131 36.0314 28.6579 36.0364 28.6978 36.0164Z" fill="#344049"/>
<path d="M34.5764 34.8178C34.5365 34.758 34.4966 34.6981 34.4168 34.6981C34.3807 34.7159 34.3514 34.7451 34.3334 34.7811C34.3154 34.8171 34.3097 34.858 34.3171 34.8976C34.3389 34.9338 34.3708 34.963 34.4088 34.9816C34.4469 35.0002 34.4895 35.0074 34.5315 35.0023C34.5166 34.9424 34.6163 34.9025 34.5764 34.8178Z" fill="#344049"/>
<path d="M36.9989 33.9839C36.8791 34.1038 37.0389 34.2287 37.1338 34.2287C37.3935 34.0888 37.2936 34.3335 37.2836 34.4334C37.1887 34.9229 36.909 35.3324 36.7842 35.8019C36.3232 36.7181 35.7272 37.5599 35.0161 38.2991C34.8079 38.5788 34.5664 38.8321 34.2969 39.0533C33.5044 39.7594 32.6018 40.3313 31.6249 40.7464C31.4301 40.9112 31.1504 40.9262 30.9307 41.0711C30.5311 41.1859 30.1365 41.3058 29.717 41.3857C29.2024 41.5137 28.6777 41.5973 28.1487 41.6354C27.914 41.7303 27.5744 41.6304 27.3197 41.7303C27.1569 41.6806 26.983 41.6806 26.8202 41.7303C26.5056 41.6055 26.0711 41.7653 25.7714 41.5555C25.4967 41.6754 25.242 41.4706 24.9423 41.4706C22.9767 41.096 21.155 40.1791 19.6831 38.8236C19.5833 38.6388 19.3885 38.5738 19.2486 38.389C18.909 38.0215 18.589 37.6364 18.2897 37.2353C17.9377 36.717 17.6383 36.1649 17.3957 35.5872C17.3919 35.5577 17.3976 35.5277 17.4119 35.5017C17.4263 35.4756 17.4486 35.4548 17.4756 35.4423C17.5355 35.4873 17.6154 35.4273 17.6154 35.4873C17.5995 35.5437 17.6043 35.604 17.6291 35.6571C17.6538 35.7103 17.6968 35.7528 17.7503 35.7769C17.8851 35.8569 17.985 35.5122 18.0849 35.7769C18.1848 36.0416 18.5344 36.0866 18.5344 36.3963C18.7142 36.4812 18.8541 36.5411 18.8091 36.7858C18.909 37.0156 19.1288 36.7509 19.2237 36.9357C19.1942 36.9457 19.1673 36.9621 19.1447 36.9836C19.1222 37.0051 19.1046 37.0313 19.0932 37.0603C19.0818 37.0892 19.0769 37.1204 19.0787 37.1514C19.0805 37.1825 19.0891 37.2129 19.1038 37.2403C19.116 37.2564 19.1313 37.2699 19.1489 37.2799C19.1664 37.2899 19.1858 37.2962 19.2058 37.2986C19.2259 37.3009 19.2462 37.2992 19.2656 37.2934C19.285 37.2877 19.303 37.2782 19.3186 37.2653C19.3585 37.2054 19.4234 37.1205 19.4784 37.2054C19.5838 37.2502 19.6155 37.3506 19.6601 37.4354C19.6711 37.4473 19.6794 37.461 19.684 37.4765C19.7214 37.533 19.7732 37.5749 19.8729 37.5749C19.9878 37.7398 19.9878 38.0095 20.2425 38.0095C20.3824 38.0944 20.2275 38.2542 20.3824 38.3391C20.5372 38.424 20.5572 38.1143 20.757 38.2192C20.9567 38.3241 20.8119 38.6338 21.0916 38.6338C21.2264 38.7337 21.1665 39.1033 21.4462 38.9834C21.4861 38.8835 21.5411 38.8236 21.7009 38.8835C21.8607 38.9434 21.7409 39.2331 21.9556 39.2331C22.1554 39.358 22.2753 39.0134 22.4101 39.2581C22.4301 39.338 22.4451 39.358 22.3502 39.338C22.2553 39.318 22.1604 39.293 22.1354 39.3979C22.1105 39.5028 22.1704 39.6027 22.2503 39.6027C22.4101 39.5877 22.51 39.2381 22.7098 39.4678C22.8247 39.5677 22.7298 39.8175 22.9046 39.8175C23.0794 39.8175 23.3391 39.4479 23.459 39.8175C23.419 39.8974 23.5139 40.0222 23.5938 40.0222C23.8385 40.0872 23.8785 39.6976 24.0933 39.9223C24.1732 40.0072 24.1332 40.212 24.313 40.212C24.5278 40.2969 24.5128 39.9074 24.7475 40.0722C24.9073 40.1371 24.7625 40.3818 24.9623 40.3818C25.202 40.4667 25.222 40.0572 25.4617 40.242C25.5966 40.3069 25.4567 40.5317 25.6365 40.5317C25.8763 40.6365 25.9012 40.207 26.136 40.3718C26.2958 40.4368 26.1909 40.5966 26.3308 40.6615C26.4706 40.7264 26.5305 40.5616 26.5905 40.4817C26.7103 40.4817 26.8302 40.5616 26.9451 40.5067C26.9701 40.4418 27.03 40.3619 27.03 40.257C26.9762 40.2188 26.9155 40.1916 26.8512 40.1771C26.7869 40.1625 26.7204 40.1608 26.6554 40.1721C26.6249 40.2103 26.5848 40.2398 26.5391 40.2573C26.4935 40.2749 26.444 40.2799 26.3957 40.272C26.3158 40.1721 26.3008 40.0222 26.141 39.9823C25.9812 39.9423 25.8563 40.202 25.7414 40.1021C25.6265 40.0023 25.5616 39.8125 25.4268 39.7925C25.2919 39.7725 25.1071 40.1371 25.0122 39.8324C24.9523 39.7475 24.9173 39.6027 24.7775 39.6027C24.6177 39.5577 24.363 39.9074 24.363 39.5577C24.2631 39.373 23.8485 39.4928 23.9884 39.2081C23.9957 39.1626 23.9886 39.116 23.968 39.0747C23.9474 39.0335 23.9143 38.9998 23.8735 38.9784C23.8261 38.9756 23.7791 38.9882 23.7395 39.0143C23.6999 39.0404 23.6698 39.0786 23.6537 39.1232C23.6537 39.1632 23.5938 39.2031 23.5938 39.2031C23.4868 39.176 23.3897 39.1188 23.3141 39.0383C23.3324 38.9976 23.3349 38.9515 23.321 38.909C23.3072 38.8665 23.278 38.8307 23.2392 38.8086C23.0244 38.6438 22.8796 39.0134 22.7647 38.7037C22.8646 38.7237 23.0644 38.7686 23.0644 38.5838C23.0644 38.4989 23.0444 38.3591 22.9445 38.3591C22.6299 38.2292 22.7048 38.8885 22.4101 38.4939C22.3152 38.414 22.4101 38.3191 22.4101 38.2342C22.4279 38.2541 22.4502 38.2695 22.475 38.2792L22.6698 38.3091C22.6908 38.3103 22.7118 38.3064 22.7309 38.2977C22.7501 38.289 22.7668 38.2758 22.7797 38.2592C22.8046 38.2262 22.8169 38.1855 22.8147 38.1443C22.8171 38.1261 22.8171 38.1076 22.8147 38.0894C22.8147 37.9995 22.7497 37.9046 22.5999 37.9046C22.4501 37.9046 22.4101 38.0544 22.4101 38.1493V38.1993C22.4082 38.2075 22.4082 38.216 22.4101 38.2242C22.3102 38.1543 22.1055 38.1493 22.1055 38.0644C22.1055 37.9795 22.1654 37.9196 22.1055 37.8147C22.0455 37.7098 21.9456 37.7098 21.8457 37.7098C21.7858 37.7947 21.7858 38.0394 21.626 37.9146C21.5771 37.8701 21.532 37.8217 21.4911 37.7697C21.4712 37.7098 21.5111 37.5999 21.591 37.6249C21.6709 37.6499 21.7309 37.6499 21.8108 37.6499H21.8108C21.8414 37.6138 21.8613 37.5699 21.8683 37.5232C21.8754 37.4764 21.8693 37.4286 21.8507 37.3852C21.8266 37.3413 21.7882 37.3069 21.7419 37.2879C21.6955 37.2688 21.6441 37.2661 21.596 37.2803C21.5161 37.3602 21.5311 37.545 21.3962 37.545C21.3523 37.5436 21.3097 37.5291 21.2741 37.5032C21.2385 37.4774 21.2114 37.4415 21.1965 37.4001C21.1913 37.3571 21.1978 37.3136 21.2154 37.274C21.233 37.2344 21.261 37.2003 21.2964 37.1754L21.2982 37.1758C21.3989 37.1959 21.616 37.2393 21.616 37.0755C21.6241 37.0272 21.6174 36.9775 21.5969 36.933C21.5765 36.8885 21.5431 36.8511 21.5011 36.8258C21.4771 36.8161 21.4511 36.8123 21.4254 36.8149C21.3996 36.8174 21.3748 36.8262 21.3532 36.8405C21.3316 36.8547 21.3138 36.874 21.3012 36.8967C21.2887 36.9194 21.2819 36.9447 21.2814 36.9706C21.2756 37.0056 21.259 37.0379 21.2339 37.063C21.2088 37.0881 21.1765 37.1047 21.1415 37.1105C21.0946 37.1006 21.0513 37.0783 21.0161 37.0457C20.9809 37.0132 20.9552 36.9717 20.9418 36.9257C20.9475 36.8849 20.964 36.8463 20.9894 36.8139C21.0148 36.7814 21.0483 36.7562 21.0866 36.7409H21.3014C21.4012 36.641 21.3413 36.3713 21.621 36.4562C21.9007 36.5411 21.8058 36.0267 22.1204 36.2364C22.2753 36.3413 22.0555 36.5611 22.2753 36.626C22.3252 36.6338 22.3763 36.6242 22.42 36.5987C22.4637 36.5732 22.4972 36.5335 22.515 36.4862C22.6548 36.2165 21.9806 36.2714 22.3802 35.9867C22.4242 35.9852 22.4675 35.9988 22.5029 36.0251C22.5382 36.0514 22.5637 36.0889 22.5749 36.1316C22.495 36.2764 22.6149 36.3813 22.7298 36.3813C22.9495 36.4412 23.0744 35.8918 23.2891 36.2814C23.2771 36.3064 23.2705 36.3337 23.2699 36.3614C23.2692 36.3892 23.2745 36.4168 23.2854 36.4423C23.2963 36.4678 23.3125 36.4907 23.3329 36.5095C23.3534 36.5283 23.3776 36.5425 23.404 36.5511C23.6987 36.616 23.6437 36.0816 23.9434 36.3513C23.9984 36.4312 23.8985 36.7009 24.0982 36.7009C24.1398 36.7037 24.1811 36.693 24.2162 36.6705C24.2512 36.6481 24.2782 36.615 24.293 36.5761C24.3979 36.2914 23.9184 36.4712 24.0833 36.1665C24.1022 36.1338 24.1328 36.1094 24.1689 36.0983C24.205 36.0872 24.244 36.0902 24.278 36.1066C24.4778 36.1915 24.2181 36.5161 24.5128 36.4762C24.8324 36.606 24.7176 36.1116 25.0122 36.2564C25.207 36.3413 24.8924 36.5611 25.207 36.646C25.5217 36.7309 25.4068 36.2414 25.7065 36.4062C26.0361 36.3663 25.6216 36.8957 26.0361 36.7808C26.0723 36.7564 26.0988 36.7199 26.1106 36.6778C26.1225 36.6358 26.1191 36.5909 26.101 36.5511C26.0411 36.4912 25.9412 36.4912 25.8813 36.4262C25.9012 36.3263 25.9412 36.1865 26.0411 36.1865C26.141 36.1865 26.2209 36.2864 26.2209 36.3913C26.161 36.4912 26.2758 36.5761 26.3358 36.5761C26.5955 36.641 26.6954 36.0666 26.9301 36.4612C26.9107 36.5098 26.9102 36.5639 26.9287 36.6129C26.9472 36.6619 26.9833 36.7022 27.03 36.7259C27.0767 36.7291 27.1233 36.7172 27.1628 36.692C27.2024 36.6669 27.2328 36.6297 27.2497 36.586C27.3297 36.3413 26.8901 36.4412 27.055 36.1965L27.0561 36.194C27.0952 36.1109 27.1111 36.0772 27.2298 36.1365C27.3496 36.1965 27.3097 36.3213 27.2697 36.4212C27.3162 36.4653 27.3734 36.4963 27.4357 36.5112C27.4979 36.5261 27.563 36.5244 27.6243 36.5061C27.6843 36.4262 27.7042 36.2814 27.8041 36.2614C27.904 36.2414 28.0289 36.2414 28.0239 36.3663C28.0189 36.4912 28.0189 36.636 28.1587 36.656C28.2986 36.6759 28.3585 36.5161 28.4185 36.4112C28.5183 36.4112 28.7131 36.4961 28.7531 36.4112C28.793 36.3263 28.838 36.1865 28.9329 36.1865C28.9753 36.1847 29.0175 36.1933 29.0558 36.2116C29.0941 36.2299 29.1274 36.2573 29.1526 36.2914C29.1327 36.3913 29.1327 36.5561 29.2475 36.5561C29.2712 36.5636 29.2962 36.5658 29.3209 36.5626C29.3455 36.5594 29.3691 36.5508 29.3901 36.5375C29.411 36.5242 29.4288 36.5064 29.4421 36.4854C29.4555 36.4645 29.4641 36.4409 29.4673 36.4162C29.5672 36.2115 29.0128 36.1865 29.3724 35.9667C29.4141 35.9677 29.4543 35.9825 29.4868 36.0087C29.5194 36.0349 29.5423 36.071 29.5522 36.1116C29.4523 36.2314 29.5872 36.3363 29.707 36.3363C29.9617 36.3813 29.9667 35.8668 30.2614 36.1365C30.3413 36.0566 30.3813 35.8718 30.4812 35.8519C30.581 35.8319 30.641 35.9168 30.6809 35.9767C30.6714 36.0006 30.6669 36.0262 30.6676 36.0519C30.6682 36.0776 30.6741 36.1028 30.6849 36.1262C30.6956 36.1496 30.711 36.1705 30.73 36.1877C30.7491 36.2049 30.7715 36.2181 30.7958 36.2264C30.8412 36.2342 30.8879 36.2259 30.9279 36.2032C30.968 36.1804 30.9989 36.1445 31.0156 36.1016C31.1554 35.8169 30.6809 35.9767 30.8208 35.692C30.8607 35.6521 30.9606 35.5722 31.0206 35.6521C31.2153 35.737 30.9157 36.0017 31.2153 36.0017C31.2403 36.0085 31.2663 36.0102 31.2919 36.0068C31.3175 36.0034 31.3422 35.995 31.3645 35.982C31.3868 35.9689 31.4063 35.9516 31.4218 35.931C31.4374 35.9104 31.4487 35.8869 31.4551 35.8618C31.4689 35.8296 31.4909 35.8015 31.5189 35.7805C31.547 35.7595 31.5801 35.7462 31.6149 35.742C31.7148 35.762 31.8846 35.762 31.8896 35.682C31.8946 35.6021 31.9745 35.5622 32.0145 35.5172C32.0555 35.5193 32.0956 35.5297 32.1326 35.5477C32.1695 35.5658 32.2023 35.5911 32.2292 35.6221C32.2187 35.6473 32.2133 35.6744 32.2134 35.7017C32.2136 35.729 32.2191 35.756 32.2298 35.7812C32.2405 35.8063 32.2562 35.829 32.2758 35.848C32.2954 35.867 32.3186 35.8819 32.3441 35.8918C32.388 35.8929 32.4315 35.8825 32.4701 35.8614C32.5087 35.8404 32.541 35.8095 32.5638 35.7719C32.6288 35.5472 32.1343 35.4573 32.469 35.2975C32.5489 35.2975 32.6288 35.3824 32.6288 35.4423C32.5489 35.5672 32.7037 35.6271 32.7836 35.6721C33.0034 35.712 32.9434 35.4074 33.1432 35.4074C33.4978 35.5921 33.4029 34.9379 33.7775 35.1876C33.8974 35.1277 33.9423 34.798 34.1371 34.9678C34.217 35.0877 34.192 35.3324 34.4318 35.2575C34.5516 35.1926 34.5516 35.0927 34.5516 34.9878C34.6715 34.9878 34.8513 35.0478 34.9112 34.9878C34.9712 34.9279 34.9912 34.843 35.0711 34.783C35.3458 34.9728 35.3108 34.5233 35.5705 34.5233C35.6255 34.5233 35.7054 34.5883 35.7653 34.5233C35.7807 34.4744 35.8066 34.4295 35.8411 34.3915C35.8756 34.3536 35.9179 34.3236 35.9651 34.3036C36.0077 34.3004 36.0504 34.3083 36.0889 34.3267C36.1275 34.3451 36.1605 34.3733 36.1848 34.4085C36.1771 34.4307 36.1739 34.4544 36.1756 34.4779C36.1772 34.5014 36.1836 34.5243 36.1943 34.5453C36.205 34.5663 36.2199 34.585 36.238 34.6001C36.2561 34.6152 36.2771 34.6264 36.2997 34.6332C36.317 34.6361 36.3348 34.6352 36.3517 34.6305C36.3687 34.6258 36.3844 34.6175 36.3977 34.606C36.411 34.5946 36.4217 34.5804 36.4289 34.5643C36.4362 34.5483 36.4398 34.5309 36.4395 34.5133C36.4795 34.3086 36.1249 34.3635 36.2847 34.1438C36.3001 34.124 36.3198 34.1081 36.3423 34.0971C36.3648 34.0861 36.3895 34.0804 36.4146 34.0804C36.4396 34.0804 36.4643 34.0861 36.4868 34.0971C36.5093 34.1081 36.529 34.124 36.5444 34.1438C36.6593 34.2287 36.4795 34.4284 36.6993 34.4534C36.7516 34.4552 36.8031 34.4402 36.8463 34.4105C36.8894 34.3808 36.9219 34.3381 36.939 34.2886C37.0189 34.0439 36.6193 34.1837 36.7442 33.919C36.8041 33.7792 36.9989 33.8391 36.9989 33.9839Z" fill="#344049"/>
<path d="M24.6075 40.4717C24.6051 40.4635 24.6051 40.4549 24.6075 40.4467C24.6075 40.4467 24.5975 40.4317 24.6075 40.4717Z" fill="#344049"/>
<path d="M21.3858 36.3757C21.4204 36.3642 21.4506 36.3422 21.4721 36.3127C21.4935 36.2832 21.5052 36.2477 21.5055 36.2112C21.4893 36.166 21.4605 36.1265 21.4225 36.0973C21.3845 36.0681 21.3388 36.0505 21.2911 36.0466C21.2519 36.0639 21.2189 36.0927 21.1966 36.1293C21.1743 36.1658 21.1638 36.2083 21.1664 36.2511C21.183 36.2939 21.2139 36.3298 21.2539 36.3525C21.2939 36.3752 21.3405 36.3834 21.3858 36.3757Z" fill="#344049"/>
<path d="M21.0913 35.8416C21.1006 35.8378 21.109 35.8322 21.116 35.8251C21.1231 35.818 21.1286 35.8095 21.1324 35.8002C21.1361 35.7909 21.1379 35.781 21.1377 35.7709C21.1375 35.7609 21.1353 35.751 21.1312 35.7419C21.1312 35.6571 21.0165 35.717 20.9966 35.7768C21.0031 35.7965 21.0159 35.8135 21.033 35.8252C21.0501 35.8369 21.0706 35.8427 21.0913 35.8416Z" fill="#344049"/>
<path d="M22.8747 35.9765C22.8747 35.9765 22.9345 35.9366 22.9146 35.8717C22.8946 35.8069 22.9146 35.8319 22.8747 35.8319C22.8348 35.8319 22.7949 35.9416 22.8747 35.9765Z" fill="#344049"/>
<path d="M21.8055 36.0712C21.8055 36.0313 21.8654 36.0114 21.8654 35.9516C21.8654 35.8917 21.8055 35.8468 21.7457 35.8269C21.6933 35.8676 21.6578 35.9262 21.646 35.9914C21.6859 36.0313 21.7258 36.0912 21.8055 36.0712Z" fill="#344049"/>
<path d="M20.6718 36.1263C20.6718 36.1263 20.7516 36.0614 20.7566 36.0216C20.7167 35.9019 20.5571 35.8969 20.5571 36.0216C20.5648 36.0478 20.5796 36.0715 20.5998 36.09C20.62 36.1084 20.6449 36.121 20.6718 36.1263Z" fill="#344049"/>
<path d="M23.5635 36.211C23.6034 36.1711 23.7031 36.1312 23.6881 36.0514C23.6732 35.9716 23.5086 35.8869 23.4687 36.0065C23.4289 36.1262 23.4737 36.191 23.5635 36.211Z" fill="#344049"/>
<path d="M20.2574 36.3661C20.2817 36.3356 20.3019 36.3021 20.3173 36.2663C20.2774 36.2015 20.1378 36.1616 20.1577 36.2663C20.1776 36.371 20.1976 36.3661 20.2574 36.3661Z" fill="#344049"/>
<path d="M20.9266 36.6205C21.0064 36.5756 21.0862 36.5158 21.0662 36.4161C21.0531 36.3816 21.0288 36.3525 20.9971 36.3335C20.9655 36.3145 20.9284 36.3067 20.8917 36.3114C20.8577 36.3229 20.8277 36.3442 20.8056 36.3725C20.7834 36.4009 20.77 36.4351 20.7671 36.4709C20.807 36.5357 20.8469 36.6155 20.9266 36.6205Z" fill="#344049"/>
<path d="M20.5668 36.7806C20.5756 36.753 20.5756 36.7234 20.5668 36.6958C20.5668 36.6559 20.512 36.5961 20.4522 36.616C20.3923 36.636 20.4771 36.7556 20.5668 36.7806Z" fill="#344049"/>
<path d="M32.9631 35.2572C32.998 35.2572 33.0229 35.1974 33.0229 35.1525C33.0229 35.1077 32.9631 35.0728 32.9232 35.0728C32.8833 35.0728 32.8035 35.1326 32.8235 35.1924C32.8434 35.2523 32.8883 35.3171 32.9631 35.2572Z" fill="#344049"/>
<path d="M33.3429 34.9776C33.3429 34.9776 33.4028 34.9377 33.4028 34.8978C33.3954 34.8825 33.3849 34.8688 33.3721 34.8577C33.3592 34.8465 33.3442 34.8381 33.328 34.833C33.2083 34.8879 33.2881 34.9776 33.3429 34.9776Z" fill="#344049"/>
<path d="M31.3749 35.6317C31.4147 35.6317 31.4746 35.547 31.4596 35.4871C31.447 35.4666 31.4285 35.4504 31.4065 35.4406C31.3845 35.4307 31.36 35.4278 31.3363 35.4321C31.3126 35.4364 31.2907 35.4478 31.2736 35.4647C31.2565 35.4817 31.2448 35.5034 31.2402 35.527C31.2602 35.5669 31.32 35.6317 31.3749 35.6317Z" fill="#344049"/>
<path d="M30.3063 35.602C30.3063 35.602 30.2664 35.5571 30.2514 35.5571C30.2365 35.5571 30.1716 35.617 30.2514 35.6618C30.3312 35.7067 30.2664 35.6219 30.3063 35.602Z" fill="#344049"/>
<path d="M34.8909 34.6578C34.9308 34.6179 34.9707 34.598 34.9757 34.5581C34.9358 34.4335 34.7962 34.4733 34.7762 34.5581C34.7563 34.6429 34.8311 34.7027 34.8909 34.6578Z" fill="#344049"/>
<path d="M24.6774 36.0813C24.6774 36.0564 24.7771 36.0414 24.7571 35.9766C24.7478 35.9583 24.7335 35.943 24.7159 35.9324C24.6982 35.9218 24.678 35.9164 24.6574 35.9168C24.6175 35.9168 24.5776 35.9766 24.5976 36.0165C24.6175 36.0564 24.6375 36.0813 24.6774 36.0813Z" fill="#344049"/>
<path d="M35.3506 34.2935C35.3506 34.2137 35.2359 34.2536 35.2509 34.3334C35.2658 34.4131 35.2907 34.3782 35.3107 34.3782C35.3306 34.3782 35.3705 34.3384 35.3506 34.2935Z" fill="#344049"/>
<path d="M37.1586 33.759C37.171 33.7812 37.1881 33.8003 37.2088 33.815C37.2295 33.8296 37.2533 33.8395 37.2783 33.8437C37.3381 33.8437 37.3581 33.764 37.3581 33.7191C37.3182 33.5595 37.1437 33.6343 37.1586 33.759Z" fill="#344049"/>
<path d="M27.6688 36.0265C27.6289 36.0265 27.609 35.9418 27.5691 35.9418C27.5292 35.9418 27.4694 36.0465 27.5292 36.0864C27.5891 36.1263 27.6489 36.0664 27.6688 36.0265Z" fill="#344049"/>
<path d="M26.4702 36.1961C26.5301 36.1961 26.57 36.1363 26.57 36.0765C26.5628 36.053 26.5483 36.0324 26.5285 36.0178C26.5088 36.0031 26.4849 35.9952 26.4603 35.9952C26.4357 35.9952 26.4118 36.0031 26.392 36.0178C26.3723 36.0324 26.3578 36.053 26.3506 36.0765C26.3805 36.1363 26.4204 36.1961 26.4702 36.1961Z" fill="#344049"/>
<path d="M28.2982 36.3607C28.3309 36.3379 28.3571 36.3072 28.3746 36.2714C28.392 36.2356 28.4001 36.196 28.398 36.1563C28.3631 36.1164 28.3032 36.0316 28.2235 36.0516C28.1437 36.0715 28.1038 36.1513 28.1237 36.2361C28.1437 36.3208 28.2185 36.3807 28.2982 36.3607Z" fill="#344049"/>
<path d="M25.3464 36.3109C25.3654 36.3085 25.3836 36.3023 25.4 36.2926C25.4164 36.2829 25.4306 36.2699 25.4419 36.2545C25.4531 36.2391 25.461 36.2215 25.4652 36.2029C25.4693 36.1843 25.4697 36.1651 25.4661 36.1464C25.4661 36.0865 25.3913 36.0666 25.3315 36.0466C25.298 36.056 25.2692 36.0776 25.2507 36.1071C25.2323 36.1366 25.2255 36.1719 25.2318 36.2062C25.2517 36.2511 25.3066 36.3109 25.3464 36.3109Z" fill="#344049"/>
<path d="M29.8269 35.9764C29.8668 35.9764 29.9466 35.9165 29.9316 35.8567C29.9166 35.7969 29.8518 35.7321 29.792 35.7719C29.7322 35.8118 29.6923 35.8118 29.7122 35.8766C29.7177 35.9036 29.7319 35.928 29.7526 35.946C29.7733 35.964 29.7995 35.9747 29.8269 35.9764Z" fill="#344049"/>
<path d="M28.6978 36.0164C28.7377 36.0164 28.7776 35.9765 28.7776 35.9117C28.7776 35.8469 28.623 35.8718 28.6181 35.9516C28.6131 36.0314 28.6579 36.0364 28.6978 36.0164Z" fill="#344049"/>
<path d="M25.0673 21.3979C24.9674 21.4778 24.6328 21.8224 24.5329 21.6726C24.433 21.5228 24.6228 21.4329 24.6228 21.4329L23.2543 21.2531L23.0146 21.9922L23.3142 22.197L22.9746 24.1249L23.8386 24.6842L24.6128 23.8252L24.2881 23.4906C24.2881 23.4906 24.0684 23.7103 23.9835 23.4906C24.0179 23.2699 24.0817 23.0549 24.1733 22.8513C24.2682 22.6016 24.443 22.1221 24.6228 22.4068C24.7384 22.6233 24.8273 22.853 24.8875 23.091L25.3869 22.4667L25.302 21.5427C25.302 21.5427 25.1572 21.4928 25.0673 21.3979Z" fill="#344049"/>
<path d="M36.7843 21.1281C36.6794 21.1931 36.2848 21.4977 36.2249 21.3429C36.1649 21.1881 36.3397 21.1231 36.3397 21.1231L35.1611 20.8185L34.8564 21.4927L35.1311 21.7275L34.5967 23.5904L35.4008 24.2197L36.2598 23.4506L35.9602 23.1159C35.9602 23.1159 35.7204 23.3057 35.6605 23.1159C35.6656 22.8978 35.7221 22.6839 35.8253 22.4916C35.9402 22.2569 36.115 21.9173 36.2399 22.1071C36.3487 22.3224 36.4164 22.5561 36.4396 22.7963L37.004 22.2369V21.3329C37.004 21.3329 36.8692 21.213 36.7843 21.1281Z" fill="#344049"/>
<path d="M21.9757 19.6248C21.8611 19.6326 21.7514 19.6737 21.6598 19.743C21.5683 19.8123 21.499 19.9068 21.4605 20.015C21.4219 20.1231 21.4158 20.2402 21.4429 20.3517C21.4699 20.4633 21.529 20.5645 21.6128 20.643C21.6966 20.7215 21.8015 20.7738 21.9146 20.7935C22.0277 20.8131 22.144 20.7994 22.2494 20.7538C22.3548 20.7083 22.4446 20.633 22.5077 20.5371C22.5709 20.4412 22.6047 20.329 22.605 20.2142C22.6024 20.1342 22.5841 20.0554 22.551 19.9825C22.518 19.9095 22.4709 19.8438 22.4125 19.7891C22.354 19.7344 22.2854 19.6917 22.2104 19.6635C22.1355 19.6353 22.0557 19.6222 21.9757 19.6248ZM21.8908 23.7103C21.7709 23.5904 22.3303 21.8524 22.3303 21.8524L20.9019 21.4628L20.7271 22.147L21.0217 22.4467L20.8469 24.4894C20.8469 24.4894 21.646 24.9639 21.676 24.9639C21.706 24.9639 22.3902 23.9201 22.3902 23.9201L22.1255 23.6254C22.1255 23.6254 22.0056 23.8302 21.8908 23.7103Z" fill="#344049"/>
<path d="M33.9024 19.1205C33.7403 19.1151 33.5827 19.174 33.4638 19.2844C33.345 19.3948 33.2747 19.5477 33.2682 19.7098C33.2591 19.8368 33.2885 19.9635 33.3525 20.0736C33.4165 20.1836 33.5121 20.2719 33.6269 20.3269C33.7418 20.3818 33.8705 20.401 33.9963 20.3818C34.1222 20.3627 34.2393 20.3061 34.3326 20.2194C34.4259 20.1328 34.4909 20.0201 34.5192 19.896C34.5476 19.7719 34.5379 19.6421 34.4915 19.5236C34.4451 19.405 34.3641 19.3032 34.2591 19.2313C34.154 19.1594 34.0297 19.1208 33.9024 19.1205ZM33.8175 23.116C33.6977 22.9962 34.2571 21.313 34.2571 21.313L32.9635 20.9285L32.7837 21.5877L33.0834 21.8774L32.8286 23.8752C32.8286 23.8752 33.5878 24.3746 33.6178 24.3746C33.6477 24.3746 34.332 23.3757 34.332 23.3757L34.0623 23.0911C34.0623 23.0911 33.9324 23.2459 33.8175 23.136V23.116Z" fill="#344049"/>
<path d="M29.9666 19.3551L28.5681 22.0222L28.4333 21.9073C28.418 21.1455 28.4463 20.3834 28.5182 19.6248L27.1098 20.4939L26.9699 21.5277C26.8841 21.635 26.8041 21.7467 26.7302 21.8624C26.7302 21.5078 26.6653 19.0255 26.6653 19.0255L25.3667 19.9395L25.3917 20.4939L25.6913 20.5238C25.8362 21.7775 25.951 23.4106 25.986 23.8851C26.2627 24.0633 26.5553 24.2155 26.86 24.3396C26.86 24.3096 27.5693 22.7214 27.5693 22.7214L27.834 24.3896L28.7929 23.8901C28.7929 23.8901 30.2363 20.4989 30.506 20.0843C30.6782 20.0438 30.8537 20.0187 31.0304 20.0094L31.1353 19.1953L29.9666 19.3551Z" fill="#344049"/>
<path d="M31.7697 23.036C31.9088 22.3849 32.1026 21.7467 32.349 21.1281L31.1054 20.8784L30.531 21.5327L30.8257 21.7275C30.8734 21.6827 30.9253 21.6426 30.9805 21.6076C31.1354 21.5177 31.1903 21.7125 31.0804 21.8923C30.442 22.2831 29.869 22.7719 29.3823 23.3407L29.8318 24.3645L31.0105 23.99L31.5649 24.4295L32.2741 23.5654L32.0594 23.1709C31.8246 23.3607 31.7297 23.1859 31.7697 23.036ZM30.9156 23.3707C30.6911 23.4719 30.461 23.5603 30.2264 23.6354C30.1565 23.6354 30.0566 23.6853 30.0566 23.6354C30.0566 23.3507 31.0555 22.7264 31.0555 22.7264L30.9156 23.3707Z" fill="#344049"/>
<path d="M19.9081 24.6443C19.8653 23.1668 19.9004 21.6881 20.013 20.2142L18.6745 20.6038L17.1762 24.5994L16.7916 24.5444L16.4819 25.2337L17.6307 25.9878L18.23 24.4146L18.8643 24.5644C18.9242 25.1837 19.0591 25.873 19.0591 25.873L20.3676 25.2137V24.5844L19.9081 24.6443ZM18.7944 23.6954L18.4348 23.6055L18.8793 22.3668L18.7944 23.6954Z" fill="#344049"/>
<path d="M31.295 43.3484C31.2619 43.3586 31.2314 43.3758 31.2057 43.3989C31.1799 43.422 31.1594 43.4504 31.1457 43.4821C31.1319 43.5139 31.1252 43.5482 31.126 43.5828C31.1269 43.6174 31.1352 43.6514 31.1504 43.6825C31.1699 43.7114 31.195 43.7362 31.2242 43.7554C31.2533 43.7746 31.286 43.7878 31.3203 43.7943C31.3546 43.8008 31.3899 43.8004 31.424 43.7932C31.4582 43.786 31.4906 43.7721 31.5193 43.7523C31.6639 43.6825 31.7387 43.5478 31.6689 43.4182C31.6285 43.3594 31.5665 43.3191 31.4964 43.306C31.4263 43.2929 31.3538 43.3081 31.295 43.3484Z" fill="#344049"/>
<path d="M23.9733 43.0089C23.7536 42.949 23.6437 43.1338 23.6088 43.2736C23.5912 43.3131 23.5821 43.3557 23.582 43.3989C23.582 43.4421 23.5909 43.4848 23.6083 43.5243C23.6257 43.5638 23.6512 43.5992 23.6831 43.6283C23.715 43.6574 23.7526 43.6795 23.7935 43.6932C24.0133 43.7581 24.1232 43.5683 24.1581 43.4285C24.1931 43.2886 24.2031 43.0689 23.9733 43.0089Z" fill="#344049"/>
<path d="M22.7291 42.2996C22.5197 42.2148 22.4 42.2497 22.2953 42.514C22.2953 42.5489 22.2604 42.5938 22.2953 42.6187C22.3384 42.6239 22.3819 42.6239 22.4249 42.6187L22.6144 42.5938C22.6842 42.5938 22.8089 42.5389 22.8338 42.4691C22.8587 42.3993 22.8088 42.3345 22.7291 42.2996Z" fill="#344049"/>
<path d="M22.4747 42.834H22.3151C22.2453 42.834 22.2104 42.834 22.1905 42.8889C22.0858 43.1482 22.1556 43.218 22.3251 43.2878C22.4946 43.3576 22.6442 43.3626 22.699 43.2329C22.7099 43.1617 22.7038 43.0889 22.6813 43.0205C22.6588 42.9521 22.6204 42.8899 22.5694 42.839C22.5387 42.83 22.5062 42.8283 22.4747 42.834Z" fill="#344049"/>
<path d="M33.7719 41.6154C33.7114 41.6063 33.6497 41.6201 33.5989 41.6543C33.5481 41.6884 33.512 41.7404 33.4977 41.7999C33.4923 41.8317 33.494 41.8642 33.5026 41.8952C33.5112 41.9262 33.5266 41.955 33.5476 41.9794C33.5627 42.0082 33.5839 42.0334 33.6097 42.0532C33.6356 42.073 33.6654 42.087 33.6971 42.0941C33.7266 42.1007 33.7571 42.1005 33.7865 42.0936C33.8159 42.0867 33.8433 42.0732 33.8667 42.0542C33.8935 42.039 33.9167 42.0183 33.9348 41.9933C33.9529 41.9684 33.9653 41.9398 33.9714 41.9096V41.8797C33.971 41.8258 33.9536 41.7734 33.9215 41.7301C33.9054 41.702 33.8839 41.6775 33.8582 41.6578C33.8325 41.6381 33.8032 41.6237 33.7719 41.6154Z" fill="#344049"/>
<path d="M31.2594 42.5842C31.2505 42.5588 31.2361 42.5357 31.2173 42.5165C31.1985 42.4972 31.1757 42.4823 31.1505 42.4728C31.1254 42.4633 31.0984 42.4594 31.0716 42.4615C31.0447 42.4635 31.0187 42.4713 30.9952 42.4845C30.9684 42.4908 30.9433 42.5025 30.9213 42.519C30.8993 42.5354 30.881 42.5562 30.8674 42.5801C30.8538 42.604 30.8453 42.6304 30.8424 42.6577C30.8395 42.685 30.8423 42.7126 30.8506 42.7388C30.8602 42.7637 30.8749 42.7862 30.8939 42.805C30.9128 42.8238 30.9355 42.8383 30.9604 42.8477C30.9854 42.8572 31.012 42.8612 31.0386 42.8596C31.0652 42.858 31.0912 42.8508 31.1148 42.8385C31.1412 42.8316 31.1659 42.8195 31.1875 42.8029C31.2091 42.7863 31.2272 42.7655 31.2407 42.7418C31.2542 42.7181 31.2628 42.692 31.266 42.6649C31.2692 42.6379 31.267 42.6104 31.2594 42.5842Z" fill="#344049"/>
<path d="M27.1301 42.3646C32.8088 42.3646 37.5136 38.4589 38.3926 33.3746L39.9559 32.8851C39.3865 39.7975 33.8626 45.1815 27.1301 45.1765C21.2716 45.1765 16.3521 41.081 14.7788 35.4773H16.4819C18.1251 39.4728 22.2755 42.3446 27.1301 42.3646Z" fill="#344049"/>
<path d="M13.4449 34.6133C13.7682 34.7444 14.1181 34.7965 14.4656 34.7652C14.813 34.734 15.148 34.6202 15.4427 34.4335H13.1353C13.2252 34.5034 13.335 34.5633 13.4449 34.6133Z" fill="#344049"/>
<path d="M12.8508 34.2436H15.6477C15.6861 34.1972 15.7196 34.147 15.7476 34.0937V34.2436H18.8192V33.7991L12.4263 33.829C12.5522 33.9823 12.6946 34.1213 12.8508 34.2436Z" fill="#344049"/>
<path d="M45.9491 25.3186C46.7582 26.1577 48.0068 25.843 48.4013 25.7132C49.7598 25.2637 49.9796 25.3486 50.1594 25.6782C50.1929 25.736 50.2118 25.8012 50.2143 25.868C51.0534 25.4085 51.8625 24.939 52.6266 24.4595C52.312 23.7304 51.5778 22.6416 48.8858 23.6554C48.1316 23.9401 47.8869 23.8752 47.782 23.7803C47.7183 23.7063 47.6814 23.6131 47.6771 23.5156C47.6771 23.2409 48.2515 22.9063 48.5462 23.0161C48.681 23.0611 48.7459 23.2459 48.8059 23.3058C49.0856 23.151 50.8436 22.232 50.8436 22.232L49.8447 20.3441C49.8447 20.3441 46.928 21.8425 46.6333 22.0223C45.984 22.4068 44.9801 23.4307 45.5345 24.6593C45.6404 24.8978 45.78 25.1198 45.9491 25.3186Z" fill="#344049"/>
<path d="M15.7476 34.843H18.8192V34.4185L15.7476 34.4284V34.843Z" fill="#344049"/>
<path d="M12.2915 33.6094L18.8242 33.5794V33.1299L12.0518 33.1648C12.1198 33.3191 12.1999 33.4678 12.2915 33.6094Z" fill="#344049"/>
<path d="M18.3246 31.9812V27.9856H15.7525V28.7497C15.4678 28.1704 14.2891 27.8507 13.45 28.2203C12.1964 28.7747 11.707 30.1432 11.7169 31.4318C11.7129 31.9599 11.8042 32.4844 11.9866 32.9801L18.834 32.9501V32.5206C18.7652 32.5186 18.6973 32.5031 18.6345 32.475C18.5716 32.4468 18.5149 32.4065 18.4675 32.3564C18.4202 32.3063 18.3833 32.2474 18.3587 32.183C18.3342 32.1186 18.3226 32.05 18.3246 31.9812ZM15.1931 32.5256C14.7686 32.5256 14.4289 31.8913 14.4289 31.1121C14.4289 30.333 14.7686 29.6987 15.1931 29.6987C15.6176 29.6987 15.9822 30.313 15.9822 31.0921C15.9822 31.8713 15.6176 32.5056 15.1931 32.5056V32.5256Z" fill="#344049"/>
<path d="M23.4341 34.1987V33.7542H19.6982V34.1987H23.4341Z" fill="#344049"/>
<path d="M23.4341 33.1099H19.6982V33.5544H23.4341V33.1099Z" fill="#344049"/>
<path d="M6.5376 33.1898V33.6343H11.2124V33.1848L6.5376 33.1898Z" fill="#344049"/>
<path d="M19.7031 34.4134V34.8329H23.439L23.434 34.3934L19.7031 34.4134Z" fill="#344049"/>
<path d="M6.5376 34.4733V34.9128H11.2124V34.4484L6.5376 34.4733Z" fill="#344049"/>
<path d="M8.99018 23.3407V17.2525C8.99416 17.058 8.95944 16.8646 8.88806 16.6837C8.81667 16.5027 8.71004 16.3377 8.57435 16.1983C8.43866 16.0589 8.27663 15.9479 8.09765 15.8716C7.91868 15.7954 7.72634 15.7554 7.5318 15.7542H0.429688V17.7519C0.429688 17.7519 1.62336 17.7519 1.67331 18.7508V21.8574C1.62336 22.8563 0.429688 22.8563 0.429688 22.8563V24.8291H7.52681C7.7211 24.8291 7.91345 24.7904 8.09265 24.7153C8.27184 24.6402 8.43428 24.5302 8.5705 24.3917C8.70672 24.2531 8.81399 24.0888 8.88604 23.9084C8.9581 23.728 8.9935 23.535 8.99018 23.3407ZM6.12337 22.1121C6.12337 22.8363 5.22436 22.9212 4.78485 22.9162C4.64001 22.9162 4.54012 22.9162 4.54012 22.9162V17.687C4.54012 17.687 6.08841 17.4972 6.11837 18.4961L6.12337 22.1121Z" fill="#344049"/>
<path d="M11.2124 34.2536V33.8091H6.5376V34.2536H11.2124Z" fill="#344049"/>
<path d="M13.6199 23.2808H12.3413V24.7341H13.6199V23.2808Z" fill="#344049"/>
<path d="M0.354492 33.6592H5.02431V33.2147H0.354492V33.6592Z" fill="#344049"/>
<path d="M5.78346 32.6005L7.16193 30.8475V31.9812C7.16193 32.5206 6.53763 32.5306 6.53763 32.5306V32.9801H11.2074V32.4807C11.2074 32.4807 9.92886 32.4807 9.91388 31.7015C9.8989 30.9224 9.88891 29.0744 9.91388 28.4651C9.94385 27.4113 11.1525 27.4662 11.1525 27.4662V25.5533H7.49157L5.79345 28.6799L4.08535 25.5533H0.414426V27.4562C0.414426 27.4562 1.66803 27.4113 1.698 28.4551C1.698 29.0644 1.698 30.8874 1.698 31.6915C1.698 32.4956 0.354492 32.4807 0.354492 32.4807V33.0201H5.02431V32.5456C5.02431 32.5456 4.4 32.5456 4.4 31.9962V30.8475L5.78346 32.6005Z" fill="#344049"/>
<path d="M0.349609 34.3035H5.02442V33.859H0.349609V34.3035Z" fill="#344049"/>
<path d="M9.41455 23.2358V24.7342H11.8069V23.2758C11.7629 23.2739 11.7198 23.2633 11.6799 23.2447C11.6401 23.226 11.6043 23.1997 11.5746 23.1673C11.5449 23.1348 11.5219 23.0968 11.5069 23.0554C11.4919 23.014 11.4852 22.9701 11.4872 22.9262V22.0372C11.4872 21.3429 12.2065 21.318 12.2065 22.0771V22.3418H13.55V21.7075C13.55 20.1193 12.1465 20.0044 11.3824 20.8035V20.3041H9.41455V21.4928C9.50243 21.4967 9.58524 21.535 9.64507 21.5995C9.70489 21.664 9.73691 21.7494 9.7342 21.8374V22.8712C9.73829 22.9164 9.73317 22.9619 9.71914 23.005C9.7051 23.0482 9.68245 23.088 9.65256 23.1221C9.62266 23.1562 9.58615 23.1838 9.54524 23.2034C9.50432 23.2229 9.45986 23.234 9.41455 23.2358Z" fill="#344049"/>
<path d="M0.349609 34.9129H5.02442V34.4784L0.349609 34.4984V34.9129Z" fill="#344049"/>
<path d="M42.9523 29.4139C41.7936 29.8485 40.6099 30.258 39.4062 30.6326L39.5661 31.0421C40.7697 30.6626 41.9534 30.253 43.1071 29.8135L42.9523 29.4139Z" fill="#344049"/>
<path d="M43.9512 30.328L44.101 30.7026C44.6005 30.4928 46.5633 29.6737 47.0977 29.414L46.9478 29.0494C45.9789 29.484 44.985 29.9235 43.9512 30.328Z" fill="#344049"/>
<path d="M46.5133 27.9307C45.5394 28.3702 44.5405 28.7947 43.5166 29.1943L43.6714 29.5888C44.6703 29.1893 45.6692 28.7647 46.6681 28.3252L46.5133 27.9307Z" fill="#344049"/>
<path d="M39.8506 31.7964L40.0104 32.1959C40.3301 32.096 43.1919 31.0522 43.5065 30.9223L43.3667 30.5577C42.2279 30.9823 41.0493 31.4118 39.8506 31.7964Z" fill="#344049"/>
<path d="M43.167 29.9834C42.0133 30.4179 40.8296 30.8325 39.626 31.207L39.7808 31.5966C40.9795 31.217 42.1582 30.8025 43.3069 30.358L43.167 29.9834Z" fill="#344049"/>
<path d="M46.733 28.485C45.7641 28.9295 44.7652 29.349 43.7363 29.7536L43.8812 30.1282C44.905 29.7236 45.879 29.2941 46.8778 28.8496L46.733 28.485Z" fill="#344049"/>
<path d="M47.8419 28.4151C49.51 27.61 51.1338 26.7164 52.7065 25.7381C52.7475 25.5998 52.7727 25.4574 52.7814 25.3135C52.7814 25.3135 52.7814 25.3135 52.7814 25.2786C51.1297 26.3077 49.4205 27.2415 47.6621 28.0755L47.8419 28.4151Z" fill="#344049"/>
<path d="M48.1466 28.9845C48.7858 28.6598 51.0733 27.4412 51.378 27.2763C51.8944 27.0161 52.3143 26.598 52.5766 26.0827V26.0377C51.0784 26.9662 49.533 27.8164 47.9468 28.5849L48.1466 28.9845Z" fill="#344049"/>
<path d="M49.2103 26.3224C49.108 26.1955 49.0193 26.0583 48.9456 25.9128C48.6659 26.0677 47.0527 26.9117 47.0527 26.9117L47.2875 27.3562C47.9667 27.0316 48.631 26.702 49.2853 26.3573L49.2103 26.3224Z" fill="#344049"/>
<path d="M52.7214 24.7092C52.7214 24.7092 52.7214 24.6643 52.7214 24.6443C51.0066 25.7102 49.2305 26.6741 47.4023 27.5311L47.5971 27.9007C49.3866 27.0522 51.1258 26.1017 52.8063 25.0538C52.7897 24.9364 52.7612 24.8209 52.7214 24.7092Z" fill="#344049"/>
<path d="M31.37 32.5255C29.9216 32.7553 28.4748 32.9217 27.0298 33.025L27.0897 33.4695C28.5281 33.3696 29.9765 33.2048 31.4199 32.97L31.37 32.5255Z" fill="#344049"/>
<path d="M31.4651 33.1598C30.0167 33.3895 28.5683 33.5593 27.1299 33.6592L27.1848 34.0987C28.6232 33.9989 30.0716 33.834 31.515 33.5993L31.4651 33.1598Z" fill="#344049"/>
<path d="M27.1899 34.2885L27.2399 34.6981C28.3037 34.6331 30.8409 34.3585 31.5601 34.1986L31.5151 33.7991C30.0734 34.0288 28.6317 34.192 27.1899 34.2885Z" fill="#344049"/>
<path d="M34.7962 31.4068L34.5465 30.4828L38.0126 29.5938L37.5132 27.8108C36.8989 25.4434 31.0204 26.2175 31.6047 29.7186C31.7554 30.5114 31.9505 31.2951 32.1891 32.066C32.1985 32.1017 32.2102 32.1367 32.2241 32.1709C33.1331 32.0111 34.0404 31.828 34.946 31.6215C34.8779 31.5645 34.8262 31.4904 34.7962 31.4068ZM34.1419 28.8096C34.0221 28.2153 35.0359 27.9506 35.2457 28.5399C35.3156 28.7347 35.4555 29.364 35.4555 29.364L34.3417 29.6387C34.3417 29.6387 34.1819 29.0344 34.1419 28.8096Z" fill="#344049"/>
<path d="M31.2954 31.8513C31.2954 31.8513 30.4963 31.9112 30.3714 31.222C30.3714 31.1171 30.2316 30.0233 30.2116 29.8485C30.1666 29.3241 30.8009 29.3191 30.8009 29.3191C30.8009 29.3191 30.5562 27.3213 30.5412 27.3213C30.3764 27.3213 29.9169 27.4262 29.852 26.9118C29.7871 26.3974 29.6822 25.4135 29.6822 25.4135L26.9702 25.7581C26.9702 25.7581 27.11 26.8019 27.165 27.2564C27.2199 27.7109 26.7654 27.8158 26.6006 27.8408L26.8303 29.8136C26.8303 29.8136 27.4397 29.6488 27.5246 30.1682C27.5246 30.343 27.6894 31.4368 27.7044 31.5416C27.7543 32.2409 26.9652 32.3907 26.9652 32.3907L27.0201 32.8252C28.4585 32.7303 29.9119 32.5655 31.3603 32.3258L31.2954 31.8513Z" fill="#344049"/>
<path d="M22.7747 28.6998V27.9407H19.7031V29.7936C19.8414 29.8001 19.9714 29.861 20.065 29.963C20.1585 30.0649 20.208 30.1997 20.2026 30.338V31.9512C20.2081 32.0201 20.1993 32.0894 20.1767 32.1547C20.1541 32.2199 20.1181 32.2798 20.0712 32.3305C20.0243 32.3812 19.9673 32.4216 19.904 32.4492C19.8406 32.4767 19.7722 32.4909 19.7031 32.4906V32.9301H23.439V32.5705C23.3007 32.5641 23.1707 32.5032 23.0771 32.4012C22.9836 32.2993 22.9341 32.1644 22.9395 32.0262V30.6227C22.9395 29.5389 24.0583 29.504 24.0583 30.6826V31.0972H26.141V30.0983C26.156 27.626 23.9734 27.4512 22.7747 28.6998Z" fill="#344049"/>
<path d="M42.6777 28.7198C42.5457 28.7611 42.403 28.7512 42.278 28.692C42.153 28.6327 42.055 28.5285 42.0035 28.4001C41.8486 27.9956 41.6638 27.5411 41.504 27.1065C41.1045 26.1077 42.1833 25.7381 42.5479 26.707L43.4519 29.0094C44.4774 28.6099 45.4763 28.1903 46.4485 27.7508L46.2587 27.2514C46.199 27.285 46.1325 27.3048 46.064 27.3094C45.9956 27.3139 45.9271 27.3031 45.8634 27.2778C45.7997 27.2524 45.7424 27.2131 45.6959 27.1627C45.6494 27.1123 45.6147 27.0522 45.5945 26.9867C44.6705 24.7941 44.196 23.5505 42.4679 23.99C42.0876 24.0947 41.7316 24.2734 41.4205 24.516C41.1094 24.7585 40.8492 25.0601 40.655 25.4034C40.655 25.3785 40.3803 24.6892 40.3803 24.6892L37.5234 25.803L38.1877 27.4861C38.1877 27.4861 38.6472 27.3013 38.8719 27.8707C39.0268 28.2603 39.2965 28.9545 39.4313 29.3141C39.4724 29.4479 39.4688 29.5914 39.421 29.723C39.3733 29.8546 39.284 29.967 39.1666 30.0433L39.3264 30.4378C40.5318 30.0649 41.7138 29.657 42.8725 29.2142L42.6777 28.7198Z" fill="#344049"/>
<path d="M38.4573 31.5717C36.5494 32.1386 34.6141 32.6087 32.6587 32.9801C32.7763 33.1224 32.9184 33.2424 33.0782 33.3347C34.9611 32.9801 36.7791 32.5106 38.5821 31.9812L38.4573 31.5717Z" fill="#344049"/>
<path d="M33.353 33.4795C33.7444 33.6678 34.1877 33.7188 34.6116 33.6243C35.5356 33.4645 37.7581 32.9001 38.737 32.6254L38.6272 32.1959C36.8991 32.6804 35.136 33.1149 33.353 33.4795Z" fill="#344049"/>
<path d="M38.1578 30.323L35.8403 30.8974L35.9652 31.3968C36.7393 31.202 37.5085 30.9972 38.2726 30.7775L38.1578 30.323Z" fill="#344049"/>
<path d="M38.3176 30.9823C36.3465 31.5604 34.3459 32.0323 32.3242 32.3957C32.3841 32.5365 32.4559 32.6718 32.539 32.8003C34.53 32.4381 36.5005 31.9713 38.4424 31.4018L38.3176 30.9823Z" fill="#344049"/>
</g>
</g>
<defs>
<clipPath id="clip0_1963_37066">
<rect width="53" height="60" fill="white"/>
</clipPath>
<clipPath id="clip1_1963_37066">
<rect width="53.176" height="30.7559" fill="white" transform="translate(0 15)"/>
</clipPath>
</defs>
</svg>
