<svg width="53" height="60" viewBox="0 0 53 60" fill="none" xmlns="http://www.w3.org/2000/svg">
<rect width="53" height="60" fill="white"/>
<g clip-path="url(#clip0_2062_19954)">
<mask id="mask0_2062_19954" style="mask-type:alpha" maskUnits="userSpaceOnUse" x="0" y="13" width="53" height="34">
<path fill-rule="evenodd" clip-rule="evenodd" d="M0 13H53V47H0V13Z" fill="white"/>
</mask>
<g mask="url(#mask0_2062_19954)">
<path fill-rule="evenodd" clip-rule="evenodd" d="M36.8164 35.4506C36.8559 36.547 36.7025 37.6705 36.2618 38.6806C35.9544 39.3853 35.5493 39.899 35.0573 40.2083C34.9412 40.2811 34.0861 40.602 33.522 40.602C33.3925 40.602 33.2784 40.585 33.1922 40.5443C33.0595 40.4819 32.9724 40.3669 32.9537 40.2288C32.7599 38.8059 32.7633 37.34 32.7668 35.9225L32.7675 35.5601C32.7695 34.0094 32.7724 32.4917 32.6995 30.9366C32.6993 30.9321 32.6993 30.9274 32.699 30.9228C32.6684 30.2198 34.0618 30.7629 34.4449 30.809C34.8603 30.8591 35.2026 30.8835 35.5174 31.2C35.8648 31.549 36.0363 31.9836 36.1615 32.454C36.4302 33.4643 36.7786 34.3957 36.8164 35.4506V35.4506ZM13.0672 28.6298C13.2448 29.7129 13.326 30.6714 13.3152 31.5601C13.3044 32.4619 13.3231 33.3891 13.2657 34.2859C13.2424 34.6482 13.1889 34.9788 13.1361 35.3359C13.0515 35.9067 13.0058 36.5524 12.7872 37.0965C12.4964 37.8205 11.7758 37.5852 11.1839 37.4537C10.6564 37.3365 9.70829 37.3267 9.29017 36.9858C8.99916 36.7488 9.16994 36.4106 9.21386 36.0845C9.32845 35.2343 9.35053 34.3446 9.30539 33.4865C9.28428 33.0842 9.26245 32.6686 9.25877 32.2557C9.24601 30.8914 9.23178 29.3449 9.28723 27.8329C9.31324 27.1233 9.19791 26.6825 9.11915 25.9707C9.09069 25.7139 8.9523 25.283 8.99008 25.0307C9.03916 24.7024 9.30931 24.5679 9.57063 24.5442C9.88373 24.5159 10.2218 24.3995 10.5398 24.4175C10.9091 24.4387 11.3356 24.674 11.6374 24.8834C12.4807 25.4697 12.8532 26.5582 12.9425 27.5453C12.9749 27.9027 13.0085 28.2724 13.0672 28.6298V28.6298ZM51.2476 23.7374H51.0484V22.8919H51.0452L50.7937 23.7374H50.616L50.363 22.8919H50.3599V23.7374H50.1638V22.6233H50.4602L50.7012 23.4565H50.7041L50.9541 22.6233H51.2476V23.7374ZM50.0104 22.8034H49.7096V23.7374H49.4966V22.8034H49.197V22.6233H50.0104V22.8034ZM48.7411 38.2344C48.5907 38.5898 48.221 38.8342 47.8635 39.0708C47.7979 39.1142 47.7334 39.1569 47.6708 39.1998C47.0869 39.5998 46.4614 39.7836 45.7989 39.978C45.3985 40.0959 44.984 40.2175 44.5721 40.3916C43.8472 40.6977 43.1187 40.9439 42.3789 41.19C42.1409 41.2692 41.78 41.3632 41.4404 41.3735C39.7628 41.4246 40.9011 39.4324 41.4124 38.7504C41.818 38.2097 41.6774 37.5067 41.7662 36.8859C41.8138 36.5539 41.8153 36.2197 41.8227 35.8808C41.8514 34.5964 41.6421 33.3094 41.711 32.0179C41.8381 29.6416 41.3685 27.2543 41.4718 24.8923C41.4939 24.4513 41.4912 24.0581 41.1783 23.7337C40.9354 23.4819 40.6088 23.3527 40.4567 23.017C40.2246 22.5044 39.8533 21.3671 40.1627 21.2297C40.6007 21.0874 41.0792 21.227 41.5137 21.297C42.0521 21.3839 42.5772 21.4312 43.1074 21.577C44.1314 21.8579 45.105 22.2893 46.0853 22.6916C46.7725 22.974 47.5359 23.0263 48.208 23.3184C48.6997 23.532 48.4725 24.2401 48.3586 24.6323C48.2045 25.1636 48.0698 25.5417 47.7361 25.5721C47.3526 25.6066 46.8854 25.4056 46.4332 25.2107C46.1868 25.1044 45.954 25.004 45.7265 24.9364C45.6254 24.9066 45.5248 24.879 45.4252 24.8516C44.7563 24.6673 43.7694 24.3109 44.148 25.4016C44.1826 25.502 44.2155 25.5967 44.2298 25.6774C44.243 25.7531 44.2523 25.8387 44.2592 25.9467C44.2629 26.0069 44.2656 26.0676 44.2683 26.128C44.2722 26.2193 44.2764 26.3135 44.2842 26.4082C44.3527 27.2296 44.4668 27.567 44.431 28.4079C44.416 28.7542 44.5264 29.6022 44.5831 29.8303C44.6768 30.2072 45.3298 29.9495 45.6583 29.9581C46.2062 29.9729 46.7541 29.9588 47.3013 29.9566C47.9093 29.9541 48.1285 30.1478 48.1849 30.7151C48.2232 31.0981 48.3635 31.92 48.0794 32.233C47.9037 32.4266 46.9894 32.3087 46.5686 32.2979C46.0649 32.2848 45.5602 32.2655 45.0569 32.3025C44.4503 32.3474 44.254 32.7246 44.3105 33.3151C44.3323 33.542 44.1927 35.6287 44.1694 36.2027C44.1557 36.5403 44.1343 36.881 44.1412 37.2189C44.1468 37.4927 44.1049 37.8898 44.4827 37.7028C45.0994 37.398 45.8487 37.4293 46.5009 37.1996C46.7576 37.1094 46.9809 37.0539 47.1941 36.991C47.449 36.916 47.7148 36.8437 47.955 36.7357C48.1258 36.659 48.3436 36.5248 48.4965 36.7039C48.7365 36.9848 48.8827 37.9001 48.7411 38.2344V38.2344ZM37.5969 41.5664C36.9908 42.1032 36.2662 42.4763 35.5007 42.7245C34.7327 42.9736 33.8351 43.2434 33.0325 43.331C32.8737 43.3483 32.7273 43.3786 32.5859 43.4154C32.3143 43.4859 31.8991 43.5076 31.6135 43.5811C31.0845 43.7173 30.5898 43.6366 30.0625 43.5461C29.598 43.4664 29.0938 43.4669 29.1223 42.9568C29.1574 42.3251 29.4241 41.6861 29.8957 41.2586C30.1092 41.0652 30.303 41.0033 30.3783 40.7167C30.4568 40.418 30.3538 40.0497 30.3288 39.7491C30.3177 39.6159 30.2583 36.8659 30.2583 36.8659C30.2537 35.7831 30.2699 34.6998 30.3229 33.6182C30.3467 33.1387 30.3575 32.6493 30.4178 32.1728C30.4694 31.7656 30.3162 30.9385 30.1138 30.5417C29.996 30.3108 29.4457 29.7773 29.3191 29.4978C29.1404 29.1034 28.9672 28.3815 29.4101 28.1841C30.0692 27.8904 30.9886 28.0771 31.6923 28.046C32.4846 28.0112 33.3159 28.1134 34.1065 28.1792C35.2229 28.2724 36.1043 28.4525 37.0301 29.134C37.2249 29.2778 37.936 30.3436 38.0562 30.4608C38.1983 30.5991 38.3212 30.7188 38.3855 30.8638C38.7977 31.791 39.2011 32.8516 39.3616 34.3222C39.5554 36.0959 38.9432 40.3748 37.5969 41.5664V41.5664ZM27.2283 30.2213C27.1593 31.6435 27.0459 33.0805 27.0003 34.5146C26.9581 35.8458 26.9704 37.1767 26.935 38.5096C26.9184 39.1423 26.9311 39.792 26.869 40.4212C26.8106 41.0134 26.8357 41.6473 26.513 42.1727C26.0294 42.961 25.2731 43.2587 24.4116 43.3206C23.8942 43.3576 23.6068 43.5175 23.0835 43.4768C23.0265 43.4723 22.5696 43.4583 22.5132 43.4489C21.9916 43.3623 21.2991 43.1241 20.8005 42.9299C19.4417 42.4009 18.9104 40.8265 18.7448 40.1741C18.3817 38.7403 18.4138 37.1668 18.442 35.7787C18.4643 34.6973 18.5782 33.6022 18.5281 32.5189C18.4783 31.4467 18.3532 30.4344 18.177 29.3908C18.0413 28.5869 18.3284 28.1881 19.1541 28.0694C19.5136 28.0177 20.152 28.0073 20.4445 28.2631C20.6845 28.4727 20.7451 28.9256 20.776 29.2327C20.8206 29.6789 20.9448 30.1192 20.9625 30.5708C21.0034 31.6223 21.0184 32.6819 20.9956 33.743C20.988 34.0952 20.9806 34.428 20.9806 34.7585C20.9806 34.9013 20.9787 35.0683 20.9765 35.2535C20.9576 36.8538 20.7755 39.5323 21.7197 40.4925C22.4742 41.2601 23.8669 40.8948 24.2119 39.9143C24.4271 39.3024 24.4305 38.6221 24.5032 37.982C24.6298 36.8667 24.576 35.7772 24.6263 34.6579C24.6901 33.2393 24.7203 31.7979 24.6313 30.3789C24.6001 29.8811 24.3886 29.0573 24.6062 28.5956C24.7341 28.3245 25.1968 28.0798 25.4793 28.0056C26.8818 27.6368 27.2805 29.1399 27.2283 30.2213V30.2213ZM17.2309 26.6455C17.0179 26.2496 17.0029 25.518 17.3751 25.4196C21.2989 24.7389 24.7758 25.4391 28.7451 25.0482C29.919 24.9325 34.4677 25.3871 35.7254 24.2525C36.1333 23.8844 35.9833 23.2476 36.0155 22.4371C36.0324 22.0109 35.1172 20.6121 34.661 19.9407C34.2522 19.3388 33.7205 18.6615 33.1775 18.1578C32.7582 17.7686 31.9521 17.3148 32.4782 16.6861C32.728 16.3874 33.4356 16.0181 33.7902 16.4071C34.2748 16.9386 34.9192 17.3804 35.2936 17.9457C35.5831 18.3833 35.9767 18.8056 36.1907 19.2863C36.3146 19.5645 36.7567 19.9491 36.891 20.007C37.3378 20.2002 37.9539 17.6011 38.7244 17.3797C39.1761 17.2499 40.0967 17.7077 40.1684 17.963C40.3048 18.4496 39.2821 19.9054 38.8534 20.4919C38.3183 21.2245 37.8859 21.7886 37.8538 22.1453C37.7208 23.6158 38.1855 25.5711 36.3703 26.2625C35.2882 26.6746 34.3727 26.3626 33.2609 26.4053C32.2066 26.4457 31.15 26.4936 30.0716 26.4706C27.4753 26.4149 24.8774 26.4238 22.2818 26.5113C20.8307 26.5604 19.568 26.8783 18.3426 26.7163C18.0035 26.6714 17.3432 26.8544 17.2309 26.6455V26.6455ZM16.6479 19.4752C15.6696 19.751 15.5896 18.3808 15.9785 17.8638C16.4189 17.2778 17.0571 16.9663 17.7874 16.8506C18.348 16.7615 19.1543 16.6037 19.2562 17.3081C19.3175 17.7319 19.3921 18.1569 19.4034 18.5853C19.4095 18.8117 19.4095 19.4358 19.6389 19.5919C19.9991 19.8351 21.2662 19.6185 21.6657 19.5517C21.8591 19.5194 21.956 19.3573 21.9842 18.758C22.0009 18.4072 22.0075 18.0293 21.953 17.6833C21.9017 17.3592 21.9172 17.0676 21.8993 16.7381C21.8932 16.6256 21.8414 16.49 21.8733 16.3716C21.9589 16.0549 22.3724 16.0887 22.6739 16.0783C22.8496 16.0721 23.0246 16.0534 23.1939 16.0346C23.4056 16.0115 23.4211 15.9673 23.5236 16.1402C23.6601 16.3696 23.4967 16.6594 23.5126 16.9034C23.5313 17.1907 23.5406 17.4766 23.5393 17.7768C23.5369 18.3036 23.6081 18.8334 23.6086 19.3623C23.6095 20.3657 23.5698 21.0462 23.5362 22.2101C23.5273 22.5212 23.454 22.996 23.4375 23.3058C23.4287 23.4676 23.5001 23.7399 23.4098 23.8835C23.2697 24.1062 22.0713 24.1247 21.8267 23.9607C21.5364 23.7663 21.874 22.4131 21.8284 21.814C21.8011 21.4549 21.9094 21.0099 21.6839 21.0107C21.2903 21.0119 19.9334 20.9534 19.662 21.1421C19.4404 21.2963 19.504 22.1046 19.4937 22.3268C19.4667 22.9003 19.6068 24.0332 19.381 24.0655C18.838 24.1437 17.9559 24.4113 17.9164 23.7772C17.8362 22.4869 17.9277 21.2006 17.9964 19.9012C18.019 19.4742 18.1819 17.6949 17.2397 18.1761C16.7924 18.4043 17.1482 18.5118 17.1887 18.8112C17.2245 19.0744 16.8984 19.4047 16.6479 19.4752V19.4752ZM16.0862 35.0419C16.0602 35.3085 16.0332 35.5836 16.0214 35.8502C15.9483 37.5109 15.1835 39.2013 13.712 40.0608C12.9982 40.4777 12.4542 40.7406 11.5957 40.678C10.9239 40.6291 10.2302 40.4091 9.57701 40.25C8.76164 40.0517 8.00296 39.7964 7.20771 39.5421C6.85291 39.4287 6.49123 39.3394 6.13765 39.2225C6.04662 39.1924 5.95951 39.162 5.87657 39.1305C5.20966 38.8764 4.4809 38.7923 4.73781 38.018C4.9081 37.5045 5.34044 37.0193 5.76984 36.8933C6.04024 36.8141 6.3018 36.7367 6.52951 36.5643C6.89584 36.2873 6.81536 36.0396 6.83475 35.6134C6.84947 35.2893 6.82444 34.9637 6.80211 34.6406C6.78715 34.4228 6.77144 34.1974 6.7685 33.9803C6.74592 32.417 6.73979 30.8791 6.73709 29.5807C6.7366 29.3743 6.73537 29.1681 6.73415 28.9616C6.72899 28.0833 6.73046 27.2281 6.84137 26.3574C6.97804 25.2854 5.52668 24.3711 5.28155 25.6498C5.17432 26.2094 5.83511 26.852 4.80308 27.0276C3.6015 27.2318 3.56052 25.4006 3.71805 24.6402C4.01495 23.2086 5.44619 22.7249 6.74003 22.4711C7.36009 22.3493 7.60865 22.1924 8.22845 22.0636C8.6262 21.981 9.35299 21.7575 9.73969 21.6784C10.162 21.592 10.5033 21.5861 10.9312 21.5828C12.4807 21.5718 13.8271 22.3579 14.7531 23.5835C15.225 24.2081 15.489 25.1145 15.5753 25.8905C15.6823 26.8502 15.7756 27.8171 15.7869 28.783C15.7903 29.0899 15.8377 29.3661 15.8833 29.6332C15.9279 29.8947 15.9701 30.1416 15.9721 30.4097C15.9751 30.8345 15.9827 31.2624 15.99 31.6765C16.0097 32.7734 16.1922 33.9544 16.0862 35.0419V35.0419ZM25.5494 15.9858C25.6395 15.767 26.6085 15.7663 26.7628 15.7515C27.2096 15.7088 28.6622 15.8654 28.9976 15.9014C29.3188 15.936 30.4816 16.0494 30.6463 16.2105C30.7609 16.323 30.6899 16.6296 30.6679 16.7825C30.6335 17.0225 30.7429 17.1189 30.5805 17.3148C30.3621 17.578 29.7146 17.4075 29.4067 17.4048C28.6077 17.3972 27.6071 17.2302 27.5858 17.4869C27.574 17.627 27.6994 18.5046 27.6709 18.8184C27.6419 19.1373 27.6653 19.1723 28.0186 19.1965C28.5827 19.235 29.1453 19.2278 29.7134 19.2658C30.0674 19.2897 30.451 19.3053 30.7643 19.4104C30.8919 19.4533 30.858 19.9767 30.8281 20.1886C30.7829 20.509 30.8634 20.5953 30.5516 20.6086C29.8584 20.638 29.1372 20.5706 28.4519 20.6207C28.0215 20.652 27.756 20.6441 27.7845 20.9295C27.8206 21.2928 27.8127 22.2064 27.9585 22.3646C28.2959 22.4778 29.7767 22.3266 30.2017 22.2827C30.5933 22.242 30.9792 22.1796 31.3912 22.2055C31.7482 22.2282 31.798 22.1953 31.8363 22.5486C31.8606 22.7718 31.9507 23.1632 31.935 23.3874C31.9026 23.8499 30.8975 23.6417 30.5871 23.6738C30.0743 23.7266 29.5235 23.7054 28.9912 23.7535C28.3602 23.8104 27.7276 23.8514 27.094 23.8615C26.911 23.8645 26.1386 23.9616 25.9737 23.9362C25.8834 23.9224 25.7852 23.8344 25.7371 23.7648C25.6807 23.6834 25.6363 23.2629 25.6844 23.1023C25.8547 22.5318 26.1339 22.7333 26.2235 22.1038C26.2951 21.6012 26.1346 20.5233 26.1668 20.0166C26.2065 19.3892 26.2414 18.22 26.0603 17.613C25.9327 17.1853 25.1625 16.9258 25.5494 15.9858V15.9858ZM52.7034 26.1191C52.6146 23.8176 53.0854 21.7092 51.1561 19.9683C50.0423 18.9637 48.6089 18.3843 47.199 17.85C40.4169 15.2794 32.7808 12.8429 25.441 13.0079C18.1949 13.171 9.93992 16.101 3.3046 18.9706C2.72822 19.2199 2.14326 19.475 1.66184 19.8741C-0.760953 21.8811 0.179799 25.5649 0.179553 28.2199V28.2234C0.179553 30.6685 0.153544 33.1133 0.155753 35.5584C0.159678 39.4699 0.238688 40.2345 3.78332 41.8819C6.84775 43.3061 11.2001 44.57 14.4893 45.4463C22.257 47.5155 30.6912 47.4519 38.5043 45.6478C42.479 44.73 46.1 43.2444 49.7268 41.4377C50.8612 40.8726 51.597 40.4111 52.0738 39.942C53.2496 38.7856 52.8521 37.5832 52.9716 34.6702C53.0886 31.8166 52.8133 28.9683 52.7034 26.1191V26.1191Z" fill="#344049"/>
</g>
</g>
<defs>
<clipPath id="clip0_2062_19954">
<rect width="53" height="34" fill="white" transform="translate(0 13)"/>
</clipPath>
</defs>
</svg>
